<?xml version="1.0" encoding="utf-8"?>
<!-- Generator: Adobe Illustrator 17.1.0, SVG Export Plug-In . SVG Version: 6.00 Build 0)  -->
<!DOCTYPE svg PUBLIC "-//W3C//DTD SVG 1.1//EN" "http://www.w3.org/Graphics/SVG/1.1/DTD/svg11.dtd" [
	<!ENTITY st0 "fill:#FBFBFB;">
]>
<svg version="1.1" id="Layer_1" xmlns="http://www.w3.org/2000/svg" xmlns:xlink="http://www.w3.org/1999/xlink" x="0px" y="0px"
	 viewBox="0 0 163 26" style="enable-background:new 0 0 163 26;" xml:space="preserve">
<g>
	<path style="&st0;" d="M5.922,20.944c-0.239,0.636-0.557,1.47-0.557,2.185c0,1.312,1.748,1.432,2.663,1.432
		c0.358,0,1.033-0.04,1.033,0.516c0,0.477-0.557,0.477-0.954,0.477c-1.113,0-2.226-0.159-3.338-0.159
		c-1.113,0-2.225,0.159-3.338,0.159C1.033,25.554,0,25.792,0,25.116c0-0.556,0.755-0.556,1.112-0.556
		c0.716,0,1.471-0.08,1.987-0.636c0.517-0.557,1.232-2.385,1.51-3.14l7.671-19.911C12.4,0.556,12.519,0,12.956,0
		c0.318,0,0.477,0.516,0.557,0.755l8.029,19.95c0.635,1.55,1.311,3.856,3.259,3.856c0.397,0,1.152,0,1.152,0.596
		c0,0.357-0.398,0.397-0.597,0.397c-1.748,0-3.497-0.159-5.246-0.159c-1.43,0-2.94,0.159-4.411,0.159
		c-0.238,0-0.635-0.04-0.635-0.397c0-0.596,0.754-0.596,1.152-0.596c1.033,0,2.543,0,2.543-1.193c0-0.557-0.358-1.431-0.557-1.947
		L16.93,18.4c-0.834-2.027-0.557-2.027-2.464-2.027H9.061c-1.59,0-1.351,0.159-1.948,1.589L5.922,20.944 M8.425,14.466
		c-0.039,0.119-0.119,0.358-0.119,0.477c0,0.397,1.271,0.238,1.431,0.238h4.57c0.238,0,1.152,0.12,1.152-0.318
		c0-0.159-0.278-0.795-0.278-0.874l-2.702-6.756c-0.08-0.158-0.398-1.192-0.636-1.192c-0.318,0-0.597,0.993-0.676,1.192
		L8.425,14.466z"/>
	<path style="&st0;" d="M38.702,10.903c0-0.734,0.031-2.415-0.337-3.027c-0.367-0.672-1.131-0.703-1.834-0.703
		c-0.275,0-0.825,0.031-0.825-0.397c0-0.337,0.336-0.428,0.642-0.428c0.918,0,1.835,0.122,2.752,0.122
		c0.795,0,1.59-0.122,2.385-0.122c0.245,0,0.642,0.03,0.642,0.397c0,0.428-0.703,0.428-0.978,0.428c-1.743,0-1.529,1.162-1.59,2.568
		v9.539c0,1.957-0.031,3.424-1.681,4.861c-1.529,1.315-3.73,1.621-5.748,1.621c-1.804,0-4.189-0.306-5.687-1.406
		c-1.865-1.284-1.804-3.058-1.804-5.076v-9.6c0-1.927,0.153-2.508-1.987-2.508c-0.275,0-0.764,0-0.764-0.397
		c0-0.337,0.214-0.428,0.519-0.428c1.162,0,2.262,0.122,3.424,0.122s2.324-0.122,3.486-0.122c0.275,0,0.519,0.091,0.519,0.428
		c0,0.397-0.519,0.397-0.795,0.397c-2.139,0-1.986,0.581-1.986,2.508v8.622c0,1.346-0.061,3.577,0.642,4.708
		c0.948,1.559,3.271,1.987,4.953,1.987c1.743,0,3.699-0.397,4.954-1.651c1.131-1.162,1.1-2.538,1.1-4.067V10.903"/>
	<path style="&st0;" d="M32.128,25.939c-1.431,0-4.086-0.187-5.792-1.441c-1.88-1.294-1.878-3.11-1.876-5.032l0.002-10.148
		c0.005-0.858,0.007-1.375-0.261-1.645c-0.226-0.227-0.689-0.323-1.55-0.323c-0.282,0-0.941,0-0.941-0.574
		c0-0.276,0.121-0.605,0.697-0.605c0.586,0,1.163,0.031,1.722,0.061c1.107,0.06,2.298,0.06,3.436,0
		c0.574-0.03,1.167-0.061,1.752-0.061c0.629,0,0.696,0.423,0.696,0.605c0,0.574-0.681,0.574-0.972,0.574
		c-0.861,0-1.324,0.096-1.55,0.323c-0.269,0.27-0.266,0.788-0.261,1.644L27.23,9.68l-0.001,8.925
		c-0.004,1.316-0.01,3.305,0.615,4.312c1.074,1.767,3.947,1.904,4.802,1.904c1.206,0,3.436-0.208,4.829-1.6
		c1.05-1.078,1.049-2.349,1.048-3.822l0-8.657c0.002-0.729,0.006-2.247-0.311-2.776c-0.312-0.57-0.946-0.617-1.683-0.617
		l-0.115,0.001c-0.167,0-0.361-0.008-0.525-0.07c-0.233-0.087-0.362-0.266-0.362-0.505c0-0.379,0.306-0.605,0.819-0.605
		c0.465,0,0.934,0.032,1.388,0.062c0.835,0.055,1.707,0.063,2.543,0c0.394-0.03,0.801-0.062,1.205-0.062
		c0.677,0,0.82,0.313,0.82,0.574c0,0.605-0.839,0.605-1.155,0.605c-1.361,0-1.375,0.716-1.399,1.901
		c-0.003,0.161-0.007,0.327-0.014,0.497l0,9.532c0,1.866,0,3.478-1.742,4.995C36.69,25.395,34.772,25.939,32.128,25.939z
		 M22.406,6.525c-0.318,0-0.343,0.104-0.343,0.251c0,0.162,0.154,0.22,0.587,0.22c0.977,0,1.499,0.124,1.801,0.428
		c0.373,0.374,0.369,0.98,0.364,1.897l-0.001,0.36l0,9.786c-0.002,1.906-0.003,3.553,1.728,4.744c1.69,1.241,4.47,1.375,5.587,1.375
		c2.556,0,4.398-0.516,5.633-1.577c1.62-1.41,1.62-2.874,1.62-4.727v-9.54c0.007-0.175,0.011-0.339,0.014-0.497
		c0.023-1.155,0.046-2.248,1.753-2.248c0.532,0,0.801-0.085,0.801-0.251c0-0.072,0-0.22-0.466-0.22c-0.39,0-0.791,0.031-1.178,0.06
		c-0.847,0.064-1.745,0.055-2.593,0c-0.448-0.029-0.912-0.06-1.365-0.06c-0.212,0-0.465,0.043-0.465,0.251
		c0,0.077,0.022,0.132,0.131,0.173c0.112,0.042,0.266,0.048,0.402,0.048l0.115-0.001c0.62,0,1.556,0,1.99,0.795
		c0.364,0.607,0.36,2.133,0.358,2.953l0,8.655c0.001,1.485,0.002,2.888-1.151,4.071c-1.484,1.483-3.82,1.705-5.08,1.705
		c-0.902,0-3.936-0.149-5.104-2.073c-0.679-1.091-0.672-3.142-0.668-4.498l0-8.924l-0.001-0.36
		c-0.005-0.917-0.008-1.522,0.364-1.897c0.302-0.303,0.824-0.427,1.801-0.427c0.445,0,0.618-0.062,0.618-0.22
		c0-0.094,0-0.251-0.342-0.251c-0.576,0-1.165,0.031-1.734,0.061c-1.148,0.06-2.357,0.06-3.474,0
		C23.555,6.555,22.982,6.525,22.406,6.525z"/>
	<path style="&st0;" d="M59.123,10.077c0,0.306-0.123,0.612-0.459,0.612c-1.04,0-0.459-3.945-5.87-3.945
		c-2.415,0-4.586,0.765-6.145,2.69c-1.437,1.743-2.201,4.342-2.201,6.544c0,2.323,0.642,4.464,2.201,6.237
		c1.743,2.018,3.975,2.721,6.604,2.721c1.04,0,2.629-0.153,3.485-0.856c0.642-0.519,0.582-1.834,0.582-2.568v-2.537
		c0-1.712-0.306-1.987-2.08-1.987c-0.306,0-0.734,0.031-0.734-0.367c0-0.397,0.428-0.397,0.703-0.397
		c1.101,0,2.202,0.122,3.302,0.122c1.04,0,2.079-0.122,3.149-0.122c0.244,0,0.519,0.061,0.519,0.367
		c0,0.367-0.305,0.398-0.581,0.398l-0.581,0.061c-0.274,0.031-0.733,0.031-0.948,0.244c-0.397,0.337-0.336,1.223-0.336,1.682v3.516
		c0,0.795,0.153,1.131-0.551,1.59c-1.895,1.223-4.28,1.681-6.512,1.681c-2.752,0-5.319-0.642-7.46-2.385
		c-2.262-1.865-3.547-4.25-3.547-7.185c0-6.115,5.748-10.334,11.619-10.334c1.559,0,3.454,0.276,4.922,0.856
		c1.04,0.398,0.765,1.07,0.856,2.08L59.123,10.077"/>
	<path style="&st0;" d="M52.672,25.939c-3.091,0-5.568-0.793-7.572-2.425c-2.397-1.976-3.612-4.44-3.612-7.322
		c0-2.915,1.304-5.612,3.671-7.597c2.211-1.853,5.172-2.915,8.125-2.915c1.747,0,3.612,0.325,4.987,0.868
		c0.926,0.355,0.934,0.948,0.943,1.636c0.002,0.182,0.005,0.38,0.024,0.592l0.062,1.292c0,0.488-0.249,0.798-0.635,0.798
		c-0.431,0-0.627-0.433-0.876-0.98c-0.536-1.18-1.346-2.965-4.995-2.965c-2.577,0-4.598,0.883-6.008,2.625
		c-1.313,1.593-2.161,4.117-2.161,6.432c0,2.434,0.726,4.493,2.157,6.12c1.569,1.816,3.625,2.661,6.471,2.661
		c0.715,0,2.476-0.079,3.373-0.816c0.529-0.427,0.522-1.527,0.518-2.255l-0.001-2.714c0-1.607-0.213-1.81-1.903-1.81l-0.128,0.001
		c-0.164,0-0.336-0.008-0.478-0.069c-0.196-0.083-0.304-0.252-0.304-0.477c0-0.575,0.617-0.575,0.88-0.575
		c0.556,0,1.118,0.032,1.662,0.062c1.043,0.058,2.135,0.062,3.182,0.001c0.523-0.031,1.063-0.062,1.608-0.062
		c0.629,0,0.697,0.38,0.697,0.544c0,0.575-0.571,0.575-0.758,0.575l-0.715,0.074c-0.234,0.02-0.555,0.047-0.689,0.179
		c-0.3,0.255-0.291,0.965-0.285,1.389l0.002,0.168v3.516c0,0.128,0.004,0.244,0.008,0.35c0.02,0.572,0.033,0.95-0.639,1.389
		C57.09,25.643,54.478,25.939,52.672,25.939z M53.284,6.035c-7.067,0-11.442,5.272-11.442,10.158c0,2.771,1.172,5.143,3.482,7.048
		c1.938,1.577,4.342,2.344,7.348,2.344c1.758,0,4.298-0.286,6.416-1.653c0.504-0.329,0.497-0.533,0.478-1.079
		c-0.004-0.11-0.008-0.23-0.008-0.363l-0.002-3.679c-0.007-0.518-0.017-1.3,0.4-1.654c0.214-0.214,0.593-0.246,0.898-0.272
		l0.727-0.075c0.396-0.001,0.423-0.084,0.423-0.222c0-0.066,0-0.19-0.343-0.19c-0.534,0-1.069,0.032-1.587,0.062
		c-1.057,0.062-2.169,0.057-3.223-0.001c-0.538-0.03-1.096-0.061-1.642-0.061c-0.403,0-0.526,0.052-0.526,0.221
		c0,0.095,0.032,0.126,0.088,0.15c0.085,0.035,0.214,0.041,0.341,0.041l0.128-0.001c1.877,0,2.257,0.364,2.257,2.164l0.001,2.712
		c0.005,0.795,0.012,1.998-0.649,2.532c-0.949,0.779-2.66,0.895-3.596,0.895c-2.957,0-5.098-0.885-6.738-2.783
		c-1.488-1.692-2.244-3.83-2.244-6.352c0-2.393,0.88-5.005,2.241-6.656c1.48-1.828,3.593-2.755,6.282-2.755
		c3.876,0,4.778,1.986,5.317,3.172c0.217,0.479,0.36,0.772,0.553,0.772c0.245,0,0.281-0.273,0.281-0.435l-0.061-1.276
		c-0.02-0.215-0.023-0.421-0.025-0.612c-0.009-0.671-0.014-1.041-0.717-1.31C56.805,6.351,54.989,6.035,53.284,6.035z"/>
	<path style="&st0;" d="M77.986,10.903c0-0.734,0.03-2.415-0.337-3.027c-0.367-0.672-1.131-0.703-1.835-0.703
		c-0.274,0-0.825,0.031-0.825-0.397c0-0.337,0.336-0.428,0.642-0.428c0.918,0,1.834,0.122,2.751,0.122
		c0.796,0,1.591-0.122,2.385-0.122c0.244,0,0.642,0.03,0.642,0.397c0,0.428-0.703,0.428-0.979,0.428
		c-1.742,0-1.528,1.162-1.59,2.568v9.539c0,1.957-0.03,3.424-1.681,4.861c-1.529,1.315-3.73,1.621-5.748,1.621
		c-1.804,0-4.189-0.306-5.687-1.406c-1.866-1.284-1.804-3.058-1.804-5.076v-9.6c0-1.927,0.153-2.508-1.987-2.508
		c-0.275,0-0.765,0-0.765-0.397c0-0.337,0.214-0.428,0.52-0.428c1.161,0,2.262,0.122,3.424,0.122s2.323-0.122,3.485-0.122
		c0.276,0,0.519,0.091,0.519,0.428c0,0.397-0.519,0.397-0.794,0.397c-2.141,0-1.988,0.581-1.988,2.508v8.622
		c0,1.346-0.061,3.577,0.642,4.708c0.948,1.559,3.272,1.987,4.954,1.987c1.743,0,3.699-0.397,4.953-1.651
		c1.131-1.162,1.101-2.538,1.101-4.067V10.903"/>
	<path style="&st0;" d="M71.413,25.939c-1.431,0-4.086-0.187-5.791-1.441c-1.88-1.293-1.879-3.109-1.877-5.031l0.002-10.149
		c0.005-0.858,0.007-1.375-0.261-1.645c-0.226-0.227-0.689-0.323-1.55-0.323c-0.282,0-0.942,0-0.942-0.574
		c0-0.276,0.121-0.605,0.697-0.605c0.585,0,1.163,0.031,1.721,0.061c1.108,0.06,2.299,0.06,3.436,0
		c0.574-0.03,1.166-0.061,1.752-0.061c0.629,0,0.696,0.423,0.696,0.605c0,0.574-0.705,0.574-0.971,0.574
		c-0.862,0-1.326,0.097-1.551,0.323c-0.269,0.27-0.266,0.788-0.261,1.644l0.002,0.363l-0.001,8.922
		c-0.004,1.317-0.01,3.307,0.616,4.315c1.074,1.767,3.948,1.904,4.803,1.904c1.206,0,3.436-0.208,4.828-1.6
		c1.051-1.079,1.05-2.351,1.049-3.825l0-8.65c0.002-0.731,0.005-2.25-0.311-2.78c-0.313-0.57-0.947-0.617-1.684-0.617l-0.115,0.001
		c-0.167,0-0.36-0.008-0.525-0.07c-0.233-0.087-0.361-0.266-0.361-0.505c0-0.379,0.306-0.605,0.819-0.605
		c0.465,0,0.934,0.032,1.388,0.062c0.836,0.055,1.708,0.063,2.544,0c0.394-0.03,0.801-0.062,1.205-0.062
		c0.677,0,0.82,0.313,0.82,0.574c0,0.605-0.84,0.605-1.156,0.605c-1.359,0-1.375,0.715-1.399,1.901
		c-0.003,0.161-0.007,0.328-0.014,0.498l0,9.532c0,1.867,0,3.479-1.741,4.995C75.975,25.395,74.057,25.939,71.413,25.939z
		 M61.69,6.525c-0.319,0-0.343,0.104-0.343,0.251c0,0.162,0.154,0.22,0.588,0.22c0.977,0,1.499,0.124,1.801,0.428
		c0.373,0.374,0.369,0.98,0.364,1.897l-0.001,0.36l0,9.788c-0.002,1.905-0.003,3.55,1.728,4.742
		c1.689,1.241,4.469,1.375,5.586,1.375c2.556,0,4.398-0.516,5.633-1.577c1.619-1.41,1.619-2.874,1.619-4.727v-9.54
		c0.008-0.176,0.011-0.339,0.014-0.498c0.024-1.155,0.047-2.247,1.753-2.247c0.532,0,0.802-0.085,0.802-0.251
		c0-0.072,0-0.22-0.466-0.22c-0.39,0-0.791,0.031-1.178,0.06c-0.847,0.064-1.745,0.056-2.594,0c-0.448-0.029-0.911-0.06-1.364-0.06
		c-0.212,0-0.465,0.043-0.465,0.251c0,0.077,0.022,0.132,0.131,0.173c0.112,0.042,0.266,0.048,0.401,0.048l0.115-0.001
		c0.62,0,1.556,0,1.99,0.795c0.365,0.608,0.361,2.135,0.358,2.956v8.649c0.001,1.487,0.002,2.891-1.152,4.074
		c-1.483,1.483-3.819,1.705-5.08,1.705c-0.902,0-3.935-0.149-5.105-2.073c-0.679-1.092-0.672-3.143-0.668-4.501l0-8.921l-0.001-0.36
		c-0.005-0.916-0.008-1.522,0.364-1.896c0.302-0.304,0.824-0.428,1.802-0.428c0.444,0,0.617-0.062,0.617-0.22
		c0-0.094,0-0.251-0.342-0.251c-0.576,0-1.165,0.031-1.733,0.061c-1.147,0.059-2.356,0.059-3.474,0
		C62.838,6.555,62.266,6.525,61.69,6.525z"/>
	<path style="&st0;" d="M85.994,15.978c-2.232-0.978-4.433-2.232-4.433-4.953c0-3.211,2.904-5.167,5.9-5.167
		c1.193,0,2.966,0.214,4.097,0.672c0.582,0.214,0.52,0.581,0.551,1.131c0.031,0.795,0.091,1.59,0.122,2.385
		c0,0.214-0.122,0.367-0.336,0.367c-0.337,0-0.398-0.489-0.49-0.703c-0.672-2.109-1.59-3.241-3.975-3.241
		c-2.018,0-3.944,1.039-3.944,3.271c0,2.629,3.364,3.699,5.351,4.556c1.009,0.459,2.293,1.1,3.027,1.896
		c0.886,0.978,1.467,2.323,1.467,3.638c0,1.712-0.825,3.241-2.14,4.342c-1.376,1.131-3.118,1.59-4.891,1.59
		c-1.499,0-3.333-0.428-4.617-1.193c-0.52-0.337-0.428-1.162-0.428-1.712c0-0.795,0-1.559,0.091-2.354
		c0.031-0.245,0.122-0.612,0.459-0.612c0.397,0,0.397,0.765,0.428,1.009c0.306,2.629,1.712,4.28,4.495,4.28
		c2.292,0,4.555-1.559,4.555-3.975c0-2.446-1.65-3.639-3.729-4.556L85.994,15.978"/>
	<path style="&st0;" d="M86.3,25.939c-1.617,0-3.465-0.478-4.707-1.217c-0.543-0.352-0.528-1.102-0.517-1.649l0.003-0.216
		c0-0.807,0-1.569,0.093-2.373c0.084-0.669,0.434-0.769,0.635-0.769c0.505,0,0.562,0.678,0.592,1.043
		c0.004,0.048,0.007,0.089,0.011,0.121c0.318,2.738,1.771,4.125,4.319,4.125c2.152,0,4.378-1.42,4.378-3.797
		c0-2.456-1.742-3.564-3.624-4.395l-1.558-0.671c-2.197-0.963-4.54-2.232-4.54-5.115c0-2.59,2.13-5.344,6.077-5.344
		c1.191,0,3.001,0.215,4.164,0.685c0.62,0.229,0.636,0.654,0.653,1.104l0.008,0.182c0.015,0.397,0.038,0.791,0.061,1.185
		c0.023,0.401,0.046,0.802,0.061,1.203c0,0.327-0.211,0.551-0.512,0.551c-0.396,0-0.524-0.413-0.601-0.66
		c-0.018-0.057-0.033-0.109-0.051-0.151c-0.635-1.99-1.46-3.133-3.812-3.133c-1.875,0-3.767,0.957-3.767,3.095
		c0,2.229,2.637,3.316,4.563,4.108c0.239,0.099,0.468,0.193,0.681,0.285c1.044,0.475,2.335,1.122,3.087,1.938
		c0.948,1.047,1.514,2.451,1.514,3.757c0,1.698-0.783,3.289-2.204,4.477C90.007,25.375,88.277,25.939,86.3,25.939z M81.805,20.069
		c-0.056,0-0.226,0-0.283,0.457c-0.09,0.782-0.09,1.534-0.09,2.331c0,0.071-0.002,0.145-0.003,0.223
		c-0.01,0.49-0.022,1.1,0.35,1.341c1.186,0.706,2.962,1.164,4.521,1.164c1.894,0,3.546-0.536,4.779-1.55
		c1.338-1.119,2.076-2.613,2.076-4.205c0-1.221-0.531-2.537-1.421-3.519c-0.708-0.768-1.958-1.394-2.969-1.854
		c-0.208-0.089-0.435-0.183-0.672-0.281c-2.018-0.831-4.782-1.969-4.782-4.436c0-2.383,2.07-3.449,4.121-3.449
		c2.558,0,3.482,1.287,4.144,3.364c0.016,0.035,0.036,0.099,0.058,0.169c0.07,0.226,0.139,0.412,0.263,0.412
		c0.105,0,0.159-0.064,0.159-0.19c-0.015-0.392-0.038-0.791-0.061-1.189c-0.023-0.396-0.046-0.792-0.061-1.189l-0.008-0.185
		c-0.017-0.439-0.024-0.639-0.427-0.788c-1.124-0.455-2.879-0.661-4.036-0.661c-2.774,0-5.723,1.749-5.723,4.99
		c0,2.67,2.234,3.873,4.327,4.791l1.558,0.672c1.898,0.838,3.836,2.052,3.836,4.719c0,2.599-2.406,4.152-4.732,4.152
		c-2.718,0-4.333-1.534-4.67-4.436c-0.004-0.035-0.008-0.081-0.013-0.135C82.028,20.591,81.985,20.069,81.805,20.069z"/>
	<path style="&st0;" d="M103.481,22.216c0,1.957-0.122,2.538,1.987,2.538c0.276,0,0.795-0.03,0.795,0.367
		c0,0.336-0.244,0.397-0.519,0.397c-1.162,0-2.263-0.122-3.425-0.122c-1.162,0-2.323,0.122-3.485,0.122
		c-0.276,0-0.52-0.061-0.52-0.397c0-0.397,0.489-0.367,0.765-0.367c2.139,0,1.987-0.612,1.987-2.538V8.059
		c0-1.1-0.398-0.887-1.346-0.887c-2.782,0-3.913,0.275-5.381,2.721c-0.122,0.214-0.367,0.734-0.672,0.734
		c-0.214,0-0.306-0.153-0.306-0.367c0-0.214,0.122-0.581,0.183-0.734l1.193-3.975c0.061-0.214,0.123-0.428,0.398-0.428
		c0.184,0,0.275,0.153,0.275,0.336c0.03,0.275,0,0.459,0.244,0.642c0.396,0.336,1.04,0.244,1.528,0.244h11.099
		c0.795,0,1.559,0.153,1.864-0.703c0.092-0.244,0.154-0.519,0.459-0.519c0.428,0,0.276,0.886,0.276,1.1l-0.184,3.73
		c0,0.244-0.03,0.519-0.367,0.519c-0.214,0-0.275-0.244-0.337-0.428c-0.214-0.642-0.428-1.498-0.887-2.079
		c-0.672-0.795-1.529-0.795-2.475-0.795h-1.774c-1.376,0-1.376-0.061-1.376,1.499V22.216"/>
	<path style="&st0;" d="M105.744,25.694c-0.586,0-1.163-0.031-1.722-0.061c-1.108-0.06-2.299-0.06-3.436,0
		c-0.574,0.03-1.166,0.061-1.752,0.061c-0.463,0-0.697-0.193-0.697-0.574c0-0.545,0.62-0.545,0.823-0.545l0.118,0.001
		c0.853,0,1.315-0.099,1.544-0.329c0.275-0.276,0.272-0.831,0.268-1.67l-0.002-0.361V8.06c0-0.727-0.156-0.727-0.498-0.727
		c-0.081,0-0.169,0.004-0.266,0.007c-0.122,0.005-0.256,0.01-0.404,0.01c-2.702,0-3.777,0.216-5.229,2.635l-0.043,0.079
		c-0.152,0.277-0.406,0.741-0.781,0.741c-0.298,0-0.483-0.209-0.483-0.543c0-0.303,0.187-0.779,0.196-0.799l1.188-3.96
		c0.063-0.219,0.159-0.554,0.567-0.554c0.266,0,0.452,0.211,0.452,0.513l0.011,0.113c0.015,0.193,0.022,0.282,0.163,0.387
		c0.305,0.259,0.77,0.226,1.154,0.215c0.093-0.002,0.183-0.005,0.268-0.005h11.099c0.107,0,0.214,0.003,0.319,0.005
		c0.099,0.002,0.197,0.005,0.293,0.005c0.566,0,0.907-0.095,1.085-0.597l0.03-0.081c0.08-0.222,0.2-0.556,0.596-0.556
		c0.121,0,0.227,0.045,0.307,0.132c0.198,0.213,0.185,0.614,0.155,1.006c-0.005,0.059-0.008,0.107-0.008,0.139l-0.185,3.739
		c0,0.164,0,0.687-0.543,0.687c-0.325,0-0.428-0.317-0.49-0.506l-0.014-0.043c-0.036-0.109-0.073-0.224-0.11-0.343
		c-0.181-0.574-0.386-1.225-0.748-1.683c-0.615-0.727-1.413-0.727-2.336-0.727l-2.052-0.001c-0.491,0-0.732,0.013-0.816,0.132
		c-0.105,0.148-0.105,0.54-0.105,1.19l-0.001,13.85c-0.003,0.904-0.005,1.45,0.274,1.73c0.227,0.228,0.687,0.325,1.537,0.325
		l0.12-0.001c0.211,0,0.853,0,0.853,0.545C106.441,25.501,106.206,25.694,105.744,25.694z M102.319,25.219
		c0.586,0,1.163,0.031,1.722,0.061c0.554,0.03,1.127,0.061,1.703,0.061c0.319,0,0.343-0.087,0.343-0.22
		c0-0.092-0.038-0.191-0.499-0.191l-0.12,0.001c-0.966,0-1.483-0.125-1.787-0.429c-0.383-0.385-0.381-0.985-0.378-1.981l0.001-0.304
		V8.672c0-0.769,0-1.155,0.17-1.394c0.199-0.282,0.579-0.282,1.105-0.282h2.052c0.97,0,1.885,0,2.61,0.858
		c0.405,0.513,0.621,1.196,0.811,1.8c0.037,0.116,0.073,0.229,0.108,0.336l0.015,0.045c0.057,0.174,0.096,0.262,0.154,0.262
		c0.118,0,0.19-0.016,0.19-0.342l0.185-3.739c0-0.03,0.004-0.088,0.009-0.158c0.014-0.186,0.048-0.62-0.062-0.739
		c-0.009-0.009-0.019-0.018-0.047-0.018c-0.129,0-0.172,0.069-0.263,0.321l-0.03,0.083c-0.303,0.851-1.011,0.838-1.719,0.824
		c-0.102-0.003-0.206-0.005-0.31-0.005H97.182c-0.082,0-0.169,0.002-0.257,0.005c-0.448,0.015-0.989,0.044-1.385-0.293
		c-0.261-0.195-0.278-0.42-0.295-0.637L95.234,5.48c-0.001-0.079-0.014-0.178-0.099-0.178c-0.121,0-0.155,0.045-0.228,0.299
		l-1.194,3.977c-0.075,0.193-0.175,0.518-0.175,0.683c0,0.189,0.081,0.189,0.129,0.189c0.165,0,0.379-0.39,0.47-0.557l0.049-0.087
		c1.533-2.557,2.8-2.811,5.534-2.811c0.142,0,0.273-0.005,0.39-0.009c0.102-0.004,0.195-0.008,0.28-0.008
		c0.637,0,0.853,0.273,0.853,1.081l0.001,14.515c0.005,0.928,0.008,1.541-0.371,1.923c-0.306,0.307-0.826,0.433-1.795,0.433
		l-0.118-0.001c-0.433,0-0.469,0.09-0.469,0.191c0,0.133,0.024,0.22,0.343,0.22c0.576,0,1.165-0.031,1.733-0.061
		C101.14,25.249,101.733,25.219,102.319,25.219z"/>
	<path style="&st0;" d="M111.364,21.97c-0.184,0.49-0.428,1.131-0.428,1.681c0,1.009,1.345,1.101,2.048,1.101
		c0.275,0,0.795-0.031,0.795,0.397c0,0.367-0.428,0.367-0.734,0.367c-0.856,0-1.713-0.122-2.568-0.122
		c-0.856,0-1.712,0.122-2.568,0.122c-0.307,0-1.1,0.184-1.1-0.336c0-0.428,0.58-0.428,0.856-0.428c0.549,0,1.131-0.061,1.529-0.49
		c0.396-0.428,0.947-1.834,1.16-2.415l5.901-15.318c0.091-0.244,0.184-0.672,0.519-0.672c0.245,0,0.367,0.397,0.428,0.581
		l6.176,15.348c0.49,1.193,1.009,2.966,2.508,2.966c0.306,0,0.886,0,0.886,0.458c0,0.276-0.305,0.306-0.458,0.306
		c-1.346,0-2.691-0.122-4.035-0.122c-1.101,0-2.263,0.122-3.394,0.122c-0.184,0-0.49-0.03-0.49-0.306
		c0-0.458,0.581-0.458,0.887-0.458c0.795,0,1.957,0,1.957-0.918c0-0.428-0.276-1.1-0.429-1.499l-0.978-2.323
		c-0.642-1.559-0.428-1.559-1.895-1.559h-4.158c-1.223,0-1.04,0.122-1.499,1.223L111.364,21.97 M113.29,16.987
		c-0.031,0.091-0.091,0.275-0.091,0.367c0,0.306,0.978,0.184,1.1,0.184h3.516c0.184,0,0.887,0.092,0.887-0.244
		c0-0.122-0.214-0.612-0.214-0.672l-2.078-5.198c-0.062-0.122-0.307-0.917-0.49-0.917c-0.245,0-0.46,0.764-0.52,0.917L113.29,16.987
		z"/>
	<path style="&st0;" d="M113.789,17.738c-0.19,0-0.768,0-0.768-0.384c0-0.088,0.03-0.215,0.101-0.423l2.111-5.57
		c0.01-0.025,0.023-0.062,0.038-0.109c0.166-0.487,0.341-0.923,0.648-0.923c0.225,0,0.363,0.265,0.586,0.858
		c0.027,0.073,0.049,0.13,0.061,0.156l2.097,5.279c0.005,0.011,0.035,0.087,0.068,0.176c0.091,0.244,0.147,0.4,0.147,0.497
		c0,0.197-0.126,0.433-0.727,0.433c-0.087,0-0.171-0.005-0.239-0.008c-0.04-0.002-0.074-0.004-0.098-0.004h-3.516
		c-0.015,0-0.047,0.002-0.089,0.005C114.107,17.727,113.95,17.738,113.789,17.738z M113.38,17.345c0.024,0,0.124,0.039,0.409,0.039
		c0.151,0,0.299-0.011,0.395-0.018c0.054-0.005,0.094-0.007,0.114-0.007h3.516c0.028,0,0.069,0.002,0.117,0.005
		c0.062,0.003,0.139,0.007,0.22,0.007c0.31,0,0.373-0.062,0.373-0.079c-0.004-0.052-0.082-0.261-0.124-0.373
		c-0.052-0.138-0.076-0.205-0.085-0.252l-2.07-5.179c-0.009-0.016-0.037-0.086-0.071-0.177c-0.048-0.128-0.184-0.488-0.274-0.61
		c-0.047,0.055-0.142,0.222-0.293,0.664c-0.018,0.054-0.033,0.096-0.043,0.122l-2.108,5.562c-0.065,0.194-0.078,0.269-0.08,0.297
		C113.376,17.346,113.378,17.345,113.38,17.345z"/>
	<path style="&st0;" d="M107.368,25.725c-0.202,0-0.351-0.028-0.469-0.089c-0.172-0.089-0.268-0.251-0.268-0.455
		c0-0.605,0.75-0.605,1.032-0.605c0.518,0,1.046-0.052,1.4-0.433c0.314-0.339,0.787-1.439,1.124-2.355l5.939-15.425
		c0.087-0.256,0.232-0.682,0.649-0.682c0.363,0,0.515,0.459,0.589,0.68l6.18,15.36c0.051,0.125,0.104,0.259,0.157,0.396
		c0.452,1.153,0.965,2.46,2.185,2.46c0.318,0,1.063,0,1.063,0.635c0,0.113-0.046,0.483-0.635,0.483
		c-0.676,0-1.362-0.031-2.026-0.061c-0.659-0.03-1.341-0.061-2.01-0.061c-0.542,0-1.113,0.03-1.665,0.06
		c-0.568,0.03-1.155,0.062-1.729,0.062c-0.6,0-0.666-0.338-0.666-0.483c0-0.635,0.745-0.635,1.063-0.635
		c0.938,0,1.78-0.056,1.78-0.741c0-0.36-0.226-0.944-0.376-1.33l-0.04-0.105l-0.977-2.318c-0.083-0.201-0.151-0.376-0.211-0.527
		c-0.362-0.924-0.362-0.924-1.522-0.924h-4.159c-0.907,0-0.912,0.012-1.155,0.657c-0.049,0.13-0.106,0.281-0.18,0.456l-0.915,2.29
		c-0.187,0.5-0.415,1.105-0.415,1.617c0,0.613,0.629,0.924,1.87,0.924l0.114-0.001c0.212,0,0.858,0,0.858,0.575
		c0,0.543-0.615,0.543-0.911,0.543c-0.435,0-0.873-0.032-1.297-0.062c-0.836-0.059-1.708-0.059-2.543,0
		c-0.424,0.03-0.862,0.062-1.296,0.062c-0.052,0-0.119,0.006-0.195,0.012C107.608,25.715,107.487,25.725,107.368,25.725z
		 M116.775,6.035c-0.151,0-0.228,0.192-0.313,0.442l-0.041,0.115l-5.902,15.32c-0.169,0.457-0.756,1.996-1.196,2.471
		c-0.448,0.482-1.09,0.547-1.659,0.547c-0.482,0-0.678,0.072-0.678,0.251c0,0.084,0.029,0.116,0.076,0.141
		c0.113,0.058,0.4,0.051,0.622,0.032c0.087-0.008,0.165-0.014,0.225-0.014c0.421,0,0.853-0.031,1.271-0.06
		c0.846-0.06,1.744-0.06,2.593,0c0.418,0.029,0.85,0.06,1.272,0.06c0.426,0,0.557-0.044,0.557-0.189
		c0-0.112-0.039-0.221-0.504-0.221l-0.114,0.001c-1.838,0-2.224-0.695-2.224-1.278c0-0.577,0.24-1.215,0.433-1.727l0.924-2.313
		c0.072-0.174,0.128-0.322,0.176-0.449c0.293-0.774,0.406-0.886,1.487-0.886h4.159c1.349,0,1.418,0.043,1.851,1.149
		c0.059,0.151,0.127,0.323,0.208,0.52l1.02,2.431c0.159,0.411,0.4,1.032,0.4,1.458c0,1.095-1.336,1.095-2.134,1.095
		c-0.517,0-0.709,0.076-0.709,0.281c0,0.032,0,0.129,0.311,0.129c0.565,0,1.147-0.031,1.711-0.061c1.239-0.067,2.505-0.055,3.71,0
		c0.659,0.03,1.341,0.061,2.01,0.061c0.187,0,0.281-0.043,0.281-0.129c0-0.205-0.192-0.281-0.709-0.281
		c-1.461,0-2.045-1.489-2.515-2.684c-0.053-0.135-0.105-0.266-0.156-0.392l-6.177-15.349C116.908,6.11,116.824,6.035,116.775,6.035z
		"/>
	<path style="&st0;" d="M141.628,9.71c0-1.926,0.122-2.537-2.018-2.537c-0.275,0-0.765,0-0.765-0.337s0.245-0.49,0.55-0.49
		c0.918,0,1.774,0.123,2.69,0.123c0.918,0,1.774-0.123,2.66-0.123c0.275,0,0.519,0.153,0.519,0.49s-0.49,0.337-0.795,0.337
		c-2.109,0-1.987,0.642-1.987,2.537v15.532c0,0.153,0.061,0.581-0.214,0.581c-0.336,0-0.611-0.489-0.764-0.734L128.664,8.395v13.82
		c0,1.895-0.154,2.537,1.986,2.537c0.276,0,0.765-0.092,0.765,0.306c0,0.336-0.214,0.458-0.52,0.458
		c-0.917,0-1.774-0.122-2.69-0.122c-0.856,0-1.774,0.122-2.66,0.122c-0.306,0-0.55-0.122-0.55-0.458
		c0-0.398,0.519-0.306,0.795-0.306c2.14,0,1.987-0.642,1.987-2.537V9.71c0-1.926,0.153-2.537-1.987-2.537
		c-0.276,0-0.765,0-0.765-0.337c0-0.459,0.397-0.49,0.734-0.49h3.791c0.642,0.153,0.887,0.582,1.254,1.07l10.823,14.034V9.71"/>
	<path style="&st0;" d="M142.269,26c-0.411,0-0.705-0.478-0.881-0.764l-0.033-0.055L128.841,8.916l-0.002,13.657
		c-0.005,0.836-0.008,1.389,0.272,1.67c0.232,0.234,0.693,0.333,1.539,0.333c0.039,0,0.083-0.002,0.129-0.004
		c0.057-0.003,0.116-0.005,0.176-0.005c0.527,0,0.638,0.268,0.638,0.492c0,0.403-0.254,0.635-0.697,0.635
		c-0.465,0-0.918-0.032-1.357-0.062c-0.833-0.056-1.69-0.064-2.628-0.001c-0.448,0.031-0.912,0.062-1.366,0.062
		c-0.455,0-0.727-0.237-0.727-0.635c0-0.224,0.115-0.492,0.661-0.492c0.062,0,0.124,0.003,0.182,0.005
		c0.047,0.002,0.09,0.004,0.129,0.004c0.846,0,1.307-0.1,1.54-0.333c0.279-0.282,0.276-0.834,0.272-1.671l-0.002-0.356l0.002-12.867
		c0.004-0.839,0.007-1.393-0.268-1.67c-0.229-0.23-0.691-0.329-1.544-0.329c-0.282,0-0.942,0-0.942-0.513
		c0-0.667,0.662-0.667,0.911-0.667h3.791c0.672,0.155,0.964,0.553,1.273,0.975l0.122,0.166l10.504,13.621l0.001-11.519
		c0.003-0.899,0.005-1.443-0.28-1.728c-0.234-0.235-0.701-0.335-1.562-0.335c-0.282,0-0.941,0-0.941-0.513
		c0-0.405,0.286-0.667,0.727-0.667c0.465,0,0.919,0.032,1.358,0.062c0.87,0.061,1.808,0.059,2.674-0.001
		c0.43-0.03,0.874-0.061,1.319-0.061c0.416,0,0.697,0.268,0.697,0.667c0,0.513-0.656,0.513-0.971,0.513
		c-0.838,0-1.294,0.1-1.529,0.335c-0.288,0.289-0.286,0.862-0.283,1.73l0.001,0.296l0.002,15.599
		c0.007,0.171,0.018,0.429-0.129,0.583C142.466,25.962,142.374,26,142.269,26z M128.487,7.875l13.203,17.176
		c0.119,0.193,0.366,0.595,0.579,0.595c0.008,0,0.012-0.001,0.012-0.001c0.026-0.025,0.036-0.134,0.028-0.321l-0.003-0.082
		l-0.001-15.826c-0.003-0.956-0.005-1.588,0.386-1.981c0.311-0.312,0.826-0.44,1.779-0.44c0.201,0,0.617,0,0.617-0.159
		c0-0.272-0.215-0.313-0.343-0.313c-0.433,0-0.851,0.029-1.294,0.06c-0.878,0.061-1.841,0.062-2.723,0.001
		c-0.433-0.03-0.881-0.061-1.334-0.061c-0.17,0-0.373,0.054-0.373,0.313c0,0.159,0.411,0.159,0.587,0.159
		c0.977,0,1.502,0.127,1.813,0.439c0.388,0.39,0.386,1.022,0.383,1.98l-0.001,0.296v12.261L130.538,7.354
		c-0.293-0.4-0.524-0.715-1.028-0.834l-3.75,0.005c-0.474,0-0.557,0.101-0.557,0.313c0,0.141,0.297,0.159,0.588,0.159
		c0.969,0,1.489,0.125,1.795,0.433c0.379,0.381,0.376,0.994,0.371,1.921l-0.001,0.36l0.001,12.86
		c0.005,0.925,0.008,1.537-0.375,1.922c-0.309,0.311-0.828,0.438-1.791,0.438c-0.043,0-0.092-0.002-0.144-0.005
		c-0.054-0.002-0.11-0.005-0.167-0.005c-0.307,0-0.307,0.076-0.307,0.138c0,0.084,0,0.281,0.373,0.281
		c0.441,0,0.899-0.031,1.342-0.061c0.909-0.062,1.831-0.057,2.676,0.001c0.433,0.029,0.881,0.06,1.333,0.06
		c0.316,0,0.343-0.145,0.343-0.281c0-0.068,0-0.138-0.284-0.138c-0.054,0-0.109,0.002-0.16,0.005s-0.1,0.005-0.144,0.005
		c-0.962,0-1.481-0.127-1.79-0.438c-0.383-0.385-0.38-0.996-0.375-1.921l0.001-0.356V7.875z"/>
	<path style="&st0;" d="M147.129,21.97c-0.184,0.49-0.428,1.131-0.428,1.681c0,1.009,1.344,1.101,2.048,1.101
		c0.275,0,0.795-0.031,0.795,0.397c0,0.367-0.427,0.367-0.733,0.367c-0.857,0-1.712-0.122-2.568-0.122s-1.713,0.122-2.568,0.122
		c-0.306,0-1.101,0.184-1.101-0.336c0-0.428,0.581-0.428,0.856-0.428c0.551,0,1.132-0.061,1.529-0.49
		c0.397-0.428,0.947-1.834,1.162-2.415l5.9-15.318c0.091-0.244,0.184-0.672,0.519-0.672c0.244,0,0.367,0.397,0.429,0.581
		l6.176,15.348c0.489,1.193,1.009,2.966,2.507,2.966c0.305,0,0.887,0,0.887,0.458c0,0.276-0.306,0.306-0.459,0.306
		c-1.346,0-2.69-0.122-4.036-0.122c-1.101,0-2.262,0.122-3.394,0.122c-0.184,0-0.49-0.03-0.49-0.306
		c0-0.458,0.581-0.458,0.887-0.458c0.795,0,1.957,0,1.957-0.918c0-0.428-0.276-1.1-0.428-1.499l-0.979-2.323
		c-0.642-1.559-0.428-1.559-1.896-1.559h-4.158c-1.223,0-1.039,0.122-1.499,1.223L147.129,21.97 M149.055,16.987
		c-0.031,0.091-0.092,0.275-0.092,0.367c0,0.306,0.979,0.184,1.101,0.184h3.516c0.184,0,0.887,0.092,0.887-0.244
		c0-0.122-0.214-0.612-0.214-0.672l-2.08-5.198c-0.061-0.122-0.304-0.917-0.489-0.917c-0.244,0-0.458,0.764-0.52,0.917
		L149.055,16.987z"/>
	<g>
		<path style="&st0;" d="M149.554,17.738c-0.19,0-0.768,0-0.768-0.384c0-0.109,0.049-0.267,0.102-0.423l2.11-5.57
			c0.012-0.028,0.025-0.068,0.042-0.117c0.166-0.482,0.34-0.915,0.644-0.915c0.226,0,0.37,0.279,0.589,0.867
			c0.026,0.07,0.045,0.124,0.058,0.149l2.099,5.277c0.005,0.011,0.035,0.088,0.068,0.176c0.091,0.244,0.146,0.4,0.146,0.497
			c0,0.197-0.126,0.433-0.727,0.433c-0.087,0-0.171-0.005-0.239-0.008c-0.04-0.002-0.074-0.004-0.098-0.004h-3.516
			c-0.015,0-0.047,0.002-0.089,0.005C149.873,17.727,149.715,17.738,149.554,17.738z M149.145,17.345
			c0.024,0,0.124,0.039,0.409,0.039c0.152,0,0.299-0.011,0.396-0.018c0.054-0.005,0.094-0.007,0.114-0.007h3.516
			c0.028,0,0.069,0.002,0.117,0.005c0.062,0.003,0.139,0.007,0.22,0.007c0.31,0,0.373-0.062,0.373-0.079
			c-0.004-0.052-0.082-0.261-0.124-0.373c-0.051-0.138-0.076-0.205-0.085-0.252l-2.073-5.179c-0.009-0.017-0.034-0.083-0.066-0.169
			c-0.049-0.129-0.185-0.497-0.278-0.618c-0.045,0.054-0.139,0.219-0.29,0.657c-0.02,0.058-0.036,0.104-0.047,0.132l-2.107,5.56
			c-0.064,0.191-0.079,0.267-0.081,0.297C149.141,17.346,149.143,17.345,149.145,17.345z"/>
		<path style="&st0;" d="M143.133,25.725c-0.202,0-0.351-0.028-0.469-0.089c-0.173-0.089-0.268-0.251-0.268-0.455
			c0-0.605,0.751-0.605,1.033-0.605c0.518,0,1.046-0.052,1.4-0.433c0.313-0.337,0.787-1.438,1.126-2.356l5.938-15.424
			c0.087-0.256,0.232-0.682,0.649-0.682c0.362,0,0.515,0.46,0.589,0.681l6.18,15.359c0.051,0.125,0.103,0.258,0.157,0.395
			c0.453,1.153,0.966,2.46,2.186,2.46c0.318,0,1.064,0,1.064,0.635c0,0.113-0.046,0.483-0.636,0.483
			c-0.677,0-1.363-0.031-2.026-0.061c-1.194-0.055-2.442-0.069-3.675-0.001c-0.568,0.03-1.155,0.062-1.729,0.062
			c-0.6,0-0.665-0.338-0.665-0.483c0-0.635,0.745-0.635,1.063-0.635c0.938,0,1.78-0.056,1.78-0.741c0-0.36-0.226-0.944-0.376-1.33
			l-0.04-0.105l-0.977-2.318c-0.083-0.201-0.151-0.376-0.211-0.527c-0.361-0.924-0.361-0.924-1.521-0.924h-4.159
			c-0.907,0-0.912,0.012-1.155,0.657c-0.049,0.13-0.106,0.281-0.18,0.456l-0.916,2.29c-0.189,0.506-0.415,1.108-0.415,1.617
			c0,0.613,0.629,0.924,1.871,0.924l0.114-0.001c0.212,0,0.858,0,0.858,0.575c0,0.543-0.615,0.543-0.911,0.543
			c-0.434,0-0.873-0.032-1.296-0.062c-0.836-0.059-1.708-0.059-2.544,0c-0.424,0.03-0.862,0.062-1.296,0.062
			c-0.052,0-0.119,0.006-0.194,0.012C143.373,25.715,143.252,25.725,143.133,25.725z M152.541,6.035
			c-0.151,0-0.228,0.192-0.313,0.442l-0.041,0.115l-5.901,15.32c-0.217,0.588-0.771,2.012-1.197,2.471
			c-0.446,0.482-1.089,0.547-1.659,0.547c-0.482,0-0.679,0.072-0.679,0.251c0,0.084,0.029,0.116,0.076,0.141
			c0.114,0.058,0.401,0.051,0.624,0.032c0.087-0.008,0.164-0.014,0.224-0.014c0.421,0,0.853-0.031,1.271-0.06
			c0.848-0.06,1.746-0.06,2.594,0c0.418,0.029,0.849,0.06,1.271,0.06c0.426,0,0.557-0.044,0.557-0.189
			c0-0.112-0.039-0.221-0.504-0.221l-0.114,0.001c-1.839,0-2.225-0.695-2.225-1.278c0-0.574,0.238-1.209,0.43-1.719l0.928-2.321
			c0.072-0.174,0.128-0.322,0.176-0.449c0.293-0.774,0.406-0.886,1.487-0.886h4.159c1.349,0,1.418,0.043,1.851,1.149
			c0.059,0.151,0.127,0.323,0.208,0.521l1.021,2.43c0.159,0.411,0.4,1.032,0.4,1.458c0,1.095-1.336,1.095-2.134,1.095
			c-0.517,0-0.709,0.076-0.709,0.281c0,0.032,0,0.129,0.311,0.129c0.565,0,1.147-0.031,1.71-0.061c1.239-0.067,2.505-0.055,3.71,0
			c0.659,0.03,1.341,0.061,2.01,0.061c0.187,0,0.282-0.043,0.282-0.129c0-0.202-0.199-0.281-0.71-0.281
			c-1.461,0-2.045-1.489-2.515-2.685c-0.053-0.135-0.105-0.266-0.156-0.391l-6.177-15.349C152.673,6.111,152.59,6.035,152.541,6.035
			z"/>
	</g>
</g>
</svg>
