<?xml version="1.0" encoding="utf-8"?>
<!-- Generator: Adobe Illustrator 17.1.0, SVG Export Plug-In . SVG Version: 6.00 Build 0)  -->
<!DOCTYPE svg PUBLIC "-//W3C//DTD SVG 1.1//EN" "http://www.w3.org/Graphics/SVG/1.1/DTD/svg11.dtd" [
	<!ENTITY st0 "opacity:0.03;">
	<!ENTITY st1 "fill:#FBFBFB;">
]>
<svg version="1.1" id="Layer_1" xmlns="http://www.w3.org/2000/svg" xmlns:xlink="http://www.w3.org/1999/xlink" x="0px" y="0px"
	 viewBox="0 0 330 330" style="enable-background:new 0 0 330 330;" xml:space="preserve">
<g style="&st0;">
	<path style="&st1;" d="M1.151,212.58l14.924-0.185l2.047-1.842c0.203,1.991,0.207,5.976,0.089,8.29l-2.423-2.479
		c-4.851,0.042-11.507-0.858-12.99,1.383C2.407,216.334,0.899,213.674,1.151,212.58"/>
	<path style="&st1;" d="M19.203,221.463l-3.885-3.975c-0.989-0.002-2.039-0.037-3.098-0.072c-1.098-0.036-2.206-0.073-3.258-0.073
		c-3.018,0-4.776,0.345-5.226,1.024l-1.358,2.053l-0.66-2.372c-0.126-0.455-0.383-1.049-0.647-1.675
		c-0.761-1.798-1.242-3.051-1.013-4.044l0.198-0.859l15.383-0.191l3.377-3.038l0.225,2.199c0.205,2.017,0.214,6.078,0.093,8.461
		L19.203,221.463z M16.257,215.237l0.907,0.926c0.01-1.07,0.002-2.198-0.027-3.213l-0.625,0.561l-14.085,0.175
		c0.197,0.593,0.509,1.329,0.711,1.81c0.06,0.143,0.119,0.284,0.178,0.422c2.197-1.058,5.652-0.861,8.977-0.748
		c1.08,0.036,2.152,0.071,3.154,0.071L16.257,215.237z"/>
	<path style="&st1;" d="M250.482,73.329l-7.44,12.937l0.543,2.7c-1.818-0.838-5.248-2.865-7.181-4.145l3.366-0.822
		c2.437-4.196,6.602-9.465,5.428-11.883C246.615,72.498,249.669,72.556,250.482,73.329"/>
	<path style="&st1;" d="M245.122,90.91l-2.006-0.924c-1.855-0.855-5.291-2.877-7.332-4.228l-2.144-1.417l5.402-1.319
		c0.506-0.849,1.072-1.734,1.64-2.627c1.745-2.739,4.137-6.488,3.506-7.787l-1.077-2.214l2.377,0.639
		c0.458,0.123,1.101,0.206,1.774,0.297c1.934,0.261,3.256,0.485,3.995,1.186l0.64,0.607l-7.672,13.336L245.122,90.91z
		 M239.244,85.283c0.916,0.556,1.892,1.123,2.78,1.614l-0.167-0.823l7.023-12.21c-0.61-0.132-1.401-0.239-1.918-0.309
		c-0.156-0.021-0.307-0.042-0.458-0.062c-0.202,2.266-2.024,5.124-3.927,8.11c-0.647,1.012-1.285,2.014-1.835,2.961l-0.241,0.413
		L239.244,85.283z"/>
	<path style="&st1;" d="M94.449,73.378c2.013,2.154,1.867,5.604,1.149,8.19c-1.437,3.018-4.021,5.749-7.328,6.322
		c-3.161,0.432-5.604-0.862-7.76-2.874c-2.013-2.154-2.586-5.602-1.581-8.333c0.575-3.161,4.168-5.891,7.041-6.753
		C89.563,69.211,92.438,71.079,94.449,73.378 M85.684,73.378c-3.305,0.43-3.448,4.31-2.875,6.898
		c0.862,2.443,3.161,4.453,6.036,3.878c2.586-0.43,4.023-3.159,3.305-5.891C91.287,75.677,88.988,72.659,85.684,73.378z"/>
	<path style="&st1;" d="M87.861,85.376L87.861,85.376c-2.657-0.001-5.113-1.9-6.111-4.726c-0.25-1.09-0.82-4.385,0.721-6.581
		c0.708-1.012,1.769-1.636,3.067-1.803c0.314-0.072,0.724-0.117,1.125-0.117c3.418,0,5.666,3.102,6.551,5.76
		c0.48,1.815,0.217,3.63-0.699,5.046c-0.807,1.249-2.046,2.068-3.486,2.307C88.654,85.336,88.253,85.376,87.861,85.376z
		 M86.663,74.393c-0.241,0-0.491,0.027-0.741,0.082c-0.77,0.104-1.265,0.387-1.614,0.882c-0.807,1.15-0.721,3.237-0.403,4.676
		c0.528,1.476,1.984,3.096,3.955,3.097l0,0c0.248,0,0.504-0.025,0.763-0.078c1.077-0.18,1.682-0.815,2.006-1.318
		c0.574-0.888,0.732-2.05,0.434-3.186C90.384,76.515,88.744,74.393,86.663,74.393z"/>
	<path style="&st1;" d="M87.071,89.096c-2.616,0-4.944-1.036-7.328-3.259c-2.296-2.456-3.041-6.356-1.866-9.542
		c0.607-3.44,4.471-6.449,7.77-7.439c0.693-0.144,1.289-0.204,1.872-0.204c2.804,0,5.492,1.379,7.773,3.988
		c2.743,2.937,1.883,7.433,1.386,9.228c-1.868,3.959-4.914,6.556-8.22,7.128C87.957,89.065,87.508,89.096,87.071,89.096z
		 M87.521,70.896c-0.436,0-0.884,0.046-1.331,0.135c-2.537,0.766-5.681,3.238-6.155,5.852c-0.945,2.609-0.39,5.561,1.294,7.366
		c2.206,2.052,4.289,2.877,6.788,2.528c2.548-0.442,4.981-2.572,6.468-5.693c0.241-0.933,1.092-4.746-0.956-6.939
		C92.32,72.648,90.222,70.896,87.521,70.896z"/>
	<path style="&st1;" d="M45.593,110.594c2.154-2.013,5.604-4.598,8.622-2.013c2.299,1.726,2.443,5.03,1.437,7.471
		c-1.151,2.731-4.455,4.312-6.898,3.593c-3.018,0.289-4.598-3.018-5.749-5.172c-1.149-3.88-1.294-9.197,1.294-12.358
		C45.448,104.415,43.438,108.295,45.593,110.594 M49.76,110.88c-1.151,0.719-2.299,1.724-1.867,3.305
		c0.143,1.581,1.867,2.443,3.448,2.156c1.292-0.575,1.724-1.867,1.724-3.161C53.064,111.456,51.484,110.45,49.76,110.88z"/>
	<path style="&st1;" d="M50.732,117.519c-2.088,0-3.79-1.39-3.958-3.232c-0.684-2.438,1.63-3.883,2.391-4.359l0.322-0.136
		c2.424-0.612,4.7,1.037,4.7,3.388c0,2.014-0.849,3.5-2.39,4.187l-0.258,0.08C51.272,117.495,51,117.519,50.732,117.519z
		 M50.194,111.935c-1.368,0.897-1.348,1.478-1.218,1.954c0.117,1.078,1.137,1.468,2.027,1.368c0.624-0.339,0.94-1.037,0.94-2.077
		C51.942,112.149,51.028,111.796,50.194,111.935z"/>
	<path style="&st1;" d="M50.001,120.942c-0.468,0-0.923-0.054-1.355-0.161c-3.476,0.195-5.276-3.224-6.455-5.452l-0.26-0.537
		c-1.16-3.913-1.462-9.766,1.5-13.388l1.098-1.342l0.775,1.55c0.63,1.262,0.527,2.737,0.429,4.165
		c-0.079,1.126-0.155,2.208,0.126,3.083c1.496-1.244,3.449-2.486,5.57-2.486c1.283,0,2.466,0.456,3.516,1.357
		c2.79,2.088,2.873,6.01,1.745,8.751C55.6,119.07,52.788,120.942,50.001,120.942z M48.863,118.51l0.207,0.06
		c0.287,0.084,0.601,0.127,0.931,0.127c1.893,0,3.878-1.323,4.616-3.078c0.832-2.02,0.731-4.783-1.075-6.138
		c-2.013-1.715-4.094-0.949-7.182,1.934l-0.819,0.763l-0.766-0.816c-1.037-1.106-1.321-2.427-1.356-3.748
		c-0.215,2.148,0.066,4.467,0.634,6.434l0.124,0.232c1.046,1.981,2.355,4.426,4.472,4.25L48.863,118.51z"/>
	<path style="&st1;" d="M292.601,109.877c0.434,2.299-0.287,7.976-6.967,6.357c-0.325,0.109-0.577,5.283-4.098,6.001
		c-2.873,0.287-5.747-1.151-6.753-3.882c-0.432-1.867-0.719-3.878,0.574-5.459c1.437-2.013,4.023-1.581,6.179-1.294
		c1.005-2.156,1.869-5.46,4.887-5.604C289.153,105.565,291.741,107.433,292.601,109.877 M286.137,111.601
		c-0.432,1.294,1.005,2.012,2.154,1.867c0.719-0.43,2.299-0.862,2.013-2.154C290.16,108.726,285.992,109.158,286.137,111.601z
		 M277.37,117.061c0.287,1.292,1.294,2.011,2.588,2.011c1.292-1.005,1.724-2.873,1.579-4.885
		C279.524,113.038,276.795,114.905,277.37,117.061z"/>
	<path style="&st1;" d="M280.343,120.195h-0.386c-1.846,0-3.293-1.135-3.684-2.89c-0.267-1.003-0.044-2.074,0.645-2.969
		c1.171-1.525,3.519-2.07,5.174-1.124l0.52,0.297l0.044,0.597c0.189,2.618-0.526,4.696-2.011,5.851L280.343,120.195z
		 M280.207,114.96c-0.568,0-1.162,0.292-1.508,0.744c-0.18,0.234-0.366,0.607-0.243,1.068c0.169,0.761,0.64,1.05,1.105,1.141
		c0.702-0.776,0.873-1.983,0.879-2.937C280.363,114.966,280.286,114.96,280.207,114.96z"/>
	<path style="&st1;" d="M287.991,114.609c-1.079,0-2.083-0.466-2.622-1.215c-0.406-0.563-0.531-1.245-0.36-1.938
		c0.007-0.743,0.281-1.436,0.785-1.97c0.618-0.656,1.568-1.047,2.539-1.047c1.728,0,2.999,1.157,3.092,2.812
		c0.397,1.731-1.392,2.601-2.155,2.974c-0.149,0.072-0.289,0.138-0.401,0.206l-0.436,0.15
		C288.287,114.6,288.14,114.609,287.991,114.609z M288.333,110.685c-0.355,0-0.71,0.134-0.906,0.342
		c-0.129,0.136-0.184,0.298-0.171,0.508l0.013,0.217l-0.068,0.205c0.07,0.236,0.371,0.402,0.77,0.408
		c0.099-0.052,0.204-0.103,0.314-0.157c0.259-0.126,0.862-0.42,0.932-0.593l-0.033-0.238
		C289.157,110.917,288.872,110.685,288.333,110.685z"/>
	<path style="&st1;" d="M280.812,123.394c-3.263,0-6.04-1.825-7.082-4.65c-0.548-2.342-0.805-4.646,0.756-6.559
		c0.925-1.296,2.379-1.955,4.4-1.955c0.662,0,1.333,0.069,1.962,0.148c0.037-0.088,0.075-0.176,0.112-0.266
		c0.906-2.144,2.147-5.08,5.409-5.236c0.202-0.038,0.526-0.064,0.844-0.064c2.822,0,5.47,1.929,6.446,4.691
		c0.292,1.485,0.278,4.238-1.34,6.19c-1.311,1.58-3.352,2.228-5.916,1.84c-0.425,1.726-1.414,5.143-4.646,5.803
		C281.369,123.379,281.089,123.394,280.812,123.394z M278.887,112.475c-1.28,0-2.087,0.331-2.616,1.072
		c-0.945,1.16-0.846,2.596-0.392,4.555c0.728,1.955,3.01,3.28,5.545,3.016c1.899-0.394,2.552-3.089,2.866-4.384
		c0.189-0.781,0.324-1.345,0.995-1.564l0.303-0.1l0.309,0.076c2.186,0.527,3.76,0.239,4.696-0.886
		c1.011-1.219,1.094-3.165,0.906-4.176c-0.677-1.869-2.82-3.299-4.9-2.979c-1.844,0.095-2.605,1.597-3.569,3.88
		c-0.16,0.382-0.316,0.75-0.476,1.091l-0.349,0.747l-1.057-0.14C280.394,112.58,279.615,112.475,278.887,112.475z"/>
	<path style="&st1;" d="M318.179,154.566c0.43,2.443-0.143,4.885-2.588,5.747c-1.581,0.719-3.735,0.43-5.172-0.575
		c-1.437,1.437-2.156,4.742-4.885,4.598c-2.729,0.289-5.172-1.867-5.892-4.31c-0.717-2.156,0-4.312,1.294-6.036
		c3.161-3.736,7.041-0.107,7.723-0.935C313.007,146.087,317.749,150.973,318.179,154.566 M313.581,153.847
		c-1.724,0.287-2.299,2.299-1.867,3.593l1.867,0.287c0.864-0.143,2.154-0.719,1.867-1.869
		C315.735,154.566,314.731,153.847,313.581,153.847z M302.516,158.157c-0.287,1.437,1.007,2.443,2.299,2.586
		c1.294-0.573,1.15-2.154,1.724-3.303C306.54,155.284,302.23,155.858,302.516,158.157z"/>
	<path style="&st1;" d="M304.994,161.892l-0.3-0.033c-1.116-0.124-2.144-0.694-2.752-1.524c-0.474-0.648-0.669-1.432-0.557-2.222
		c-0.044-0.722,0.195-1.413,0.678-1.961c0.645-0.728,1.717-1.181,2.802-1.181c1.647,0,2.798,1.015,2.798,2.469v0.265l-0.118,0.237
		c-0.136,0.273-0.23,0.627-0.329,1.003c-0.246,0.937-0.581,2.22-1.945,2.824L304.994,161.892z M304.865,157.216
		c-0.439,0-0.899,0.173-1.118,0.421c-0.101,0.116-0.136,0.226-0.116,0.38l0.022,0.181l-0.035,0.179
		c-0.048,0.239-0.004,0.44,0.138,0.633c0.175,0.242,0.482,0.439,0.831,0.545c0.186-0.204,0.296-0.559,0.458-1.178
		c0.086-0.328,0.18-0.687,0.318-1.045C305.233,157.219,304.911,157.216,304.865,157.216z"/>
	<path style="&st1;" d="M313.587,158.864l-2.723-0.419l-0.217-0.65c-0.366-1.1-0.215-2.415,0.397-3.432
		c0.531-0.881,1.366-1.457,2.353-1.622c1.197-0.019,2.114,0.382,2.668,1.071c0.449,0.562,0.634,1.28,0.524,2.042
		c0.079,0.555-0.039,1.089-0.349,1.557c-0.691,1.055-2.07,1.357-2.475,1.424L313.587,158.864z M312.699,156.455l0.857,0.133
		c0.458-0.109,0.772-0.323,0.813-0.419l-0.066-0.257l0.048-0.297c0.061-0.274-0.015-0.368-0.039-0.399
		c-0.099-0.123-0.364-0.247-0.732-0.247c-0.158,0.042-0.419,0.227-0.612,0.55C312.806,155.788,312.714,156.126,312.699,156.455z"/>
	<path style="&st1;" d="M305.042,165.487c-3.258,0-5.725-2.587-6.477-5.144c-0.748-2.247-0.23-4.756,1.471-7.024
		c1.232-1.459,2.686-2.173,4.359-2.173c1.226,0,2.326,0.384,3.129,0.664c0.156,0.055,0.34,0.119,0.5,0.17
		c1.94-2.928,3.993-3.579,5.381-3.579c3.091,0,5.538,3.119,5.887,6.031c0.599,3.374-0.642,5.992-3.326,6.941
		c-1.359,0.63-3.6,0.593-5.269-0.183c-0.173,0.26-0.349,0.55-0.528,0.85c-0.87,1.446-2.061,3.426-4.464,3.426l-0.23-0.005
		C305.446,165.476,305.244,165.487,305.042,165.487z M304.396,153.391c-1.011,0-1.837,0.421-2.603,1.325
		c-0.682,0.912-1.789,2.843-1.085,4.955c0.546,1.852,2.412,3.799,4.707,3.55l0.059-0.007l0.23,0.004
		c1.057,0,1.664-0.884,2.539-2.338c0.412-0.684,0.838-1.391,1.381-1.935l0.664-0.665l0.772,0.539
		c1.118,0.782,2.907,0.998,4.065,0.472c2.261-0.804,2.186-3.182,1.947-4.532c-0.235-1.936-1.881-4.114-3.668-4.114
		c-1.256,0-2.568,1.039-3.795,3.004c-0.25,0.32-0.625,0.656-1.28,0.656l0,0c-0.471,0-0.945-0.166-1.546-0.375
		C306.097,153.689,305.24,153.391,304.396,153.391z"/>
	<path style="&st1;" d="M18.723,160.311c2.443,0,5.317-2.443,7.471,0c2.013,1.726,1.724,4.887,0.862,7.184
		c-0.717,1.726-2.441,3.018-4.453,2.874c-2.731,0.575-4.168-2.874-5.747-4.167c-2.874,0.43-7.043-0.289-7.761-3.88
		c0-2.586,0.575-5.317,3.161-6.179C15.562,155.282,17.429,158.3,18.723,160.311 M11.969,159.449c-0.575,0.862,0,1.726,0.575,2.299
		c1.151,0.719,2.588,0.145,3.305-0.43C15.419,159.592,13.549,157.582,11.969,159.449z M19.442,165.485
		c1.005,1.149,2.011,1.724,3.448,1.724c1.581-0.143,1.726-2.156,1.294-3.305C22.46,163.185,20.16,163.761,19.442,165.485z"/>
	<path style="&st1;" d="M22.94,168.331h-0.05c-1.694,0-3.017-0.65-4.293-2.108l-0.459-0.525l0.269-0.646
		c0.651-1.563,2.311-2.573,4.228-2.573c0.686,0,1.37,0.135,1.981,0.389l0.448,0.186l0.17,0.454c0.377,1.002,0.451,2.502-0.236,3.595
		c-0.446,0.711-1.159,1.147-2.006,1.223L22.94,168.331z M20.88,165.341c0.603,0.515,1.197,0.735,1.95,0.745
		c0.144-0.022,0.205-0.08,0.265-0.175c0.156-0.248,0.208-0.696,0.153-1.124C22.512,164.631,21.537,164.732,20.88,165.341z"/>
	<path style="&st1;" d="M13.751,163.206c-0.66,0-1.266-0.17-1.804-0.506l-0.2-0.159c-1.724-1.731-1.073-3.174-0.713-3.714
		c0.878-1.049,1.734-1.249,2.311-1.249c1.769,0,3.17,1.786,3.591,3.465l0.175,0.698l-0.562,0.451
		C16.254,162.43,15.174,163.206,13.751,163.206z M13.237,160.851c0.338,0.162,0.802,0.125,1.211-0.026
		c-0.329-0.58-0.798-1.002-1.103-1.002c-0.194,0-0.409,0.22-0.52,0.351C12.758,160.287,13.017,160.616,13.237,160.851z"/>
	<path style="&st1;" d="M22.004,171.557c-2.147,0-3.528-1.729-4.639-3.119c-0.311-0.389-0.611-0.764-0.89-1.056
		c-3.284,0.318-7.667-0.774-8.481-4.84c-0.022-4.156,1.3-6.593,3.907-7.462c0.549-0.146,1.025-0.209,1.487-0.209
		c2.926,0,4.706,2.415,5.912,4.265c0.499-0.083,1.046-0.254,1.616-0.433c0.942-0.294,1.915-0.599,2.927-0.599
		c1.262,0,2.336,0.493,3.193,1.466c2.312,1.967,2.09,5.606,1.072,8.32c-0.949,2.287-3.061,3.725-5.432,3.61
		C22.451,171.537,22.225,171.557,22.004,171.557z M17.181,165.02l0.385,0.315c0.555,0.454,1.039,1.06,1.552,1.703
		c0.993,1.241,1.99,2.496,3.254,2.235l0.153-0.033l0.156,0.012c0.008,0,0.014,0,0.021,0c1.532,0,2.775-0.88,3.317-2.187
		c0.703-1.875,0.99-4.576-0.556-5.9c-1.135-1.253-2.3-0.811-3.879-0.319c-0.925,0.289-1.882,0.589-2.862,0.589H18.11l-0.331-0.515
		c-1.287-2.003-2.842-4.322-5.239-3.688c-0.521,0.176-2.323,0.777-2.323,5.091c0.553,2.648,4.058,2.87,5.119,2.87
		c0.47,0,0.929-0.035,1.355-0.099L17.181,165.02z"/>
	<path style="&st1;" d="M193.31,102.115c2.299,4.167,1.437,10.346-1.005,14.225c-5.604,9.053-16.526,9.915-21.698,18.249
		c-1.437,0.432-1.294-1.005-1.581-1.724c2.156-9.34,14.082-9.77,17.243-18.681c1.294-3.159,1.151-7.471-0.719-10.346
		c-2.729-3.591-6.898-4.885-11.351-4.885c-2.731,0.143-5.606,1.437-6.468,4.167c0.289,13.939,0.719,43.085,0.719,43.085l49.36,0.24
		l-4.983,6.85l-44.377-0.025c0,0-0.12,10.634,0,10.634c3.903-1.7,8.91-3.306,13.22-1.581c5.773,2.945,11.783,5.747,18.105,3.88
		l3.161,6.179l12.178,0.249l1.831,4.923l0.455,60.927l-48.543-0.145c0,0-0.439,2.561-0.408,4.742
		c-2.586,1.82-5.484,3.595-8.885,5.364c1.437-4.93,1.245-9.865,1.245-9.865l-46.963-0.024l-0.719-58.843l3.283-5.733l9.77-0.543
		c0,0,2.034-4.359,3.185-6.226c11.781,5.174,19.804-11.496,31.013-2.299l0.192-11.614l-50.485,0.024l4-6.827l46.485-0.287
		l-0.312-43.085c-0.575-3.305-2.731-6.754-5.747-8.046l1.292-1.005C168.307,95.936,185.837,88.895,193.31,102.115 M190.531,168.477
		c-4.669-0.958-12.017-8.544-21.793-1.987l0.287,50.868c7.328-3.018,15.374-1.149,21.985,2.441c2.922,0.768,5.892,1.439,8.048,0
		l-0.575-51.298C198.483,168.501,195.202,169.437,190.531,168.477z M130.229,169.508c-0.575,17.673,0,34.486,0.43,52.018
		c10.346,0.43,19.542-10.491,30.033-3.593v-49.719C151.064,156.72,141.867,174.968,130.229,169.508z M213.115,174.776l-8.645-0.047
		c0,0,1.198,2.107,1.773,3.401l0.358,51.875l-37.406,0.047l-0.169,4.693h44.52L213.115,174.776z M117.009,175.83l0.695,58.891
		l43.275,0.024l0.191-4.455h-37.695l-1.005-50.868l2.25-4.119L117.009,175.83z"/>
	<path style="&st1;" d="M162.055,235.868l-45.461-0.025l-0.721-61.061l10.814-0.739l-3.087,5.655l0.976,49.47h37.765
		L162.055,235.868z M118.813,233.599l41.089,0.021l0.096-2.208h-37.624l-1.033-52.267l1.412-2.583l-4.609,0.316L118.813,233.599z"/>
	<path style="&st1;" d="M214.676,235.865h-46.816l0.25-6.937l37.359-0.047l-0.346-50.503c-0.577-1.24-1.618-3.074-1.629-3.094
		l-0.96-1.688l11.695,0.065L214.676,235.865z M170.189,233.62h42.224l-0.412-57.728l-5.63-0.031c0.32,0.605,0.658,1.271,0.899,1.811
		l0.096,0.449l0.366,53.002l-37.455,0.047L170.189,233.62z"/>
	<path style="&st1;" d="M131.262,222.659c-0.215,0-0.434-0.004-0.649-0.013l-1.05-0.044l-0.186-7.379
		c-0.399-15.521-0.778-30.183-0.272-45.751l0.057-1.705l1.541,0.725c1.351,0.633,2.706,0.941,4.144,0.941
		c3.243,0,6.42-1.603,9.494-3.152c3.129-1.578,6.082-3.068,9.198-3.068c2.98,0,5.602,1.401,8.014,4.281l0.263,0.314v52.207
		l-1.739-1.143c-2.155-1.417-4.374-2.106-6.782-2.106c-3.455,0-6.845,1.376-10.437,2.833
		C139.151,221.102,135.316,222.659,131.262,222.659z M131.302,171.133c-0.43,14.916-0.066,29.073,0.32,44.031l0.132,5.24
		c3.453-0.124,6.913-1.528,10.261-2.888c3.631-1.475,7.387-2.998,11.281-2.998c2.21,0,4.28,0.483,6.275,1.473V168.63
		c-1.901-2.162-3.826-3.173-6.032-3.173c-2.581,0-5.304,1.374-8.187,2.827c-3.309,1.669-6.727,3.392-10.505,3.393
		C133.624,171.677,132.453,171.499,131.302,171.133z"/>
	<path style="&st1;" d="M195.906,221.766c-1.682,0-3.482-0.436-5.181-0.883l-0.25-0.099c-7.369-4.003-14.934-4.896-21.022-2.391
		l-1.541,0.634l-0.3-53.134l0.502-0.335c2.844-1.908,5.679-2.834,8.667-2.834c3.982,0,7.391,1.692,10.13,3.052
		c1.498,0.743,2.791,1.385,3.848,1.602c1.322,0.271,2.657,0.409,3.969,0.409c2.111,0,3.44-0.363,3.453-0.367l1.408-0.391l0.02,1.46
		l0.581,51.907l-0.506,0.338C198.638,221.427,197.403,221.766,195.906,221.766z M191.424,218.747
		c2.392,0.625,4.953,1.091,6.505,0.397l-0.553-49.29c-1.607,0.221-4.523,0.243-7.071-0.277c-1.342-0.275-2.756-0.977-4.394-1.79
		c-2.662-1.321-5.677-2.817-9.132-2.817c-2.357,0-4.626,0.697-6.915,2.129l0.274,48.656
		C176.504,213.706,184.094,214.799,191.424,218.747z"/>
	<path style="&st1;" d="M157.753,250.652l0.735-2.523c0.98-3.362,1.173-6.754,1.204-8.43l-46.954-0.024l-0.737-60.258l3.741-6.527
		l9.709-0.539c0.61-1.279,2.039-4.235,2.96-5.73l0.513-0.832l0.895,0.392c1.416,0.623,2.82,0.925,4.286,0.925
		c3.256,0,6.389-1.544,9.417-3.036c3.096-1.527,6.299-3.106,9.726-3.106c2.103,0,4.096,0.588,6.045,1.787l0.138-8.334l-51.304,0.025
		l5.317-9.067l45.998-0.286l-0.303-41.961c-0.542-3.016-2.633-5.979-5.067-7.022l-1.752-0.749l3.177-2.47l0.476,0.071
		c1.48,0.221,3.151,0.329,5.106,0.329c0.002,0,0.002,0,0.002,0c2.278,0,4.705-0.147,7.051-0.288
		c2.418-0.145,4.918-0.296,7.336-0.296c6.83,0,14.405,1.052,18.819,8.859c2.627,4.759,1.425,11.471-1.035,15.378
		c-3.002,4.852-7.398,7.426-11.651,9.916c-3.938,2.305-7.656,4.483-10.042,8.325l-0.224,0.361l-0.408,0.123
		c-0.592,0.181-1.12,0.155-1.515,0.002c0.068,4.318,0.118,7.754,0.143,9.421l50.451,0.246l-6.606,9.084l-43.838-0.024
		c-0.029,2.632-0.05,5.948-0.039,7.849c2.256-0.889,5.148-1.783,8.075-1.783c1.618,0,3.127,0.276,4.488,0.821
		c4.598,2.341,9.011,4.403,13.48,4.403c1.351,0,2.622-0.182,3.892-0.557l0.892-0.264l3.28,6.411l12.272,0.25l2.166,6.022
		l0.465,62.061l-48.706-0.144c-0.121,0.909-0.272,2.334-0.254,3.6l0.009,0.592l-0.485,0.341c-2.756,1.939-5.703,3.72-9.014,5.442
		L157.753,250.652z M114.956,237.431l46.932,0.023l0.044,1.079c0.007,0.174,0.129,3.652-0.682,7.729
		c2.166-1.207,4.175-2.452,6.08-3.77c0.039-2.091,0.406-4.244,0.421-4.343l0.16-0.936l48.359,0.144l-0.445-59.595l-1.498-4.022
		l-12.083-0.248l-3.056-5.973c-1.18,0.273-2.392,0.411-3.622,0.411c-4.966,0-9.649-2.178-14.407-4.605
		c-1.002-0.396-2.23-0.618-3.561-0.618c-3.216,0-6.505,1.272-8.698,2.229l-0.706,0.307l-0.544-0.548
		c-0.439-0.443-0.447-0.452-0.322-11.436l0.013-1.111l44.915,0.026l3.357-4.615l-48.269-0.235l-0.015-1.101
		c0,0-0.43-29.141-0.719-43.078l-0.004-0.184l0.057-0.177c1.079-3.416,4.571-4.796,7.479-4.95c0.002,0,0.004,0,0.007,0
		c5.495,0,9.61,1.794,12.298,5.327c2.026,3.112,2.361,7.793,0.864,11.451c-1.631,4.598-5.387,7.055-9.02,9.43
		c-3.598,2.352-7.001,4.576-8.099,8.791c0.022,0.084,0.044,0.173,0.064,0.263c2.673-3.76,6.501-6.003,10.215-8.177
		c4.015-2.35,8.167-4.782,10.882-9.167c2.151-3.416,3.102-9.243,0.978-13.093c-3.839-6.791-10.678-7.709-16.859-7.709
		c-2.35,0-4.817,0.149-7.2,0.293c-2.381,0.144-4.841,0.292-7.187,0.292c0,0,0,0-0.002,0c-1.458,0-2.774-0.058-3.982-0.174
		c2.361,1.938,3.817,4.977,4.269,7.569l0.338,44.394l-46.971,0.291l-2.686,4.584l49.668-0.023l-0.252,15.079l-1.796-1.473
		c-2.105-1.728-4.205-2.569-6.42-2.569c-2.905,0-5.736,1.397-8.735,2.874c-3.258,1.606-6.628,3.267-10.408,3.267
		c-1.458,0-2.857-0.243-4.254-0.741c-1.118,2.023-2.635,5.262-2.653,5.301l-0.285,0.607l-9.829,0.547l-2.828,4.938L114.956,237.431z
		 M168.858,103.293c0.14,6.786,0.311,17.053,0.452,25.842c1.826-3.101,4.826-5.063,7.749-6.975c3.475-2.271,6.757-4.417,8.152-8.35
		c1.237-3.019,0.973-6.934-0.601-9.359c-2.193-2.88-5.712-4.374-10.41-4.374C172.151,100.187,169.658,101.092,168.858,103.293z"/>
	<path style="&st1;" d="M142.299,175.257c0,0,1.484,6.849,2.922,9.435c1.63-2.561,3.664-9.315,3.664-9.315l5.197-0.073
		c0,0-2.267,1.33-2.23,1.361c-1.597,4.52-3.755,10.137-6.105,14.685h-0.862c-2.39-4.422-4.803-10.278-6.921-14.848
		c0.025-0.132-1.408-0.352-1.916-1.125L142.299,175.257"/>
	<path style="&st1;" d="M146.43,192.473h-2.214l-0.318-0.589c-1.669-3.087-3.317-6.794-4.911-10.377
		c-0.642-1.443-1.267-2.85-1.87-4.16c-0.693-0.257-1.53-0.625-2.008-1.352l-1.118-1.7l9.209-0.178l0.195,0.902
		c0.011,0.052,0.895,4.094,1.918,7.018c1.261-2.902,2.482-6.932,2.497-6.983l0.237-0.787l10.261-0.146l-3.659,2.151
		c-0.002,0.001-1.28,0.75-1.861,1.113c-2.1,5.912-4.133,10.783-6.043,14.481L146.43,192.473z M139.171,176.439
		c0.601,1.31,1.226,2.714,1.868,4.154c1.392,3.132,2.826,6.358,4.265,9.143c1.719-3.494,3.541-7.948,5.424-13.263l-1.013,0.014
		c-0.599,1.891-2.179,6.654-3.548,8.806l-1.013,1.591l-0.916-1.649c-1.191-2.145-2.368-6.854-2.833-8.839L139.171,176.439z"/>
	<path style="&st1;" d="M189.718,178.848c0.717,3.018,0.238,6.036-1.63,8.335c-3.424,3.952-9.148,1.581-13.603,2.299
		c2.395-1.724,1.005-8.478,1.005-12.358l-1.292-1.294C178.798,175.255,187.131,172.812,189.718,178.848 M179.707,177.244
		c-0.073,0.359-0.143,6.203,0.143,9.652c1.294,0.575,7.7-0.835,5.7-7.402C184.233,177.483,181.717,177.099,179.707,177.244z"/>
	<path style="&st1;" d="M180.593,188.136L180.593,188.136c-0.478,0-0.881-0.072-1.199-0.214l-0.607-0.271l-0.055-0.663
		c-0.276-3.336-0.239-9.396-0.125-9.965l0.169-0.836l0.851-0.061c0.272-0.02,0.553-0.031,0.838-0.031
		c2.708,0,4.848,0.989,6.025,2.785l0.136,0.288c0.954,3.138,0.138,5.169-0.715,6.32
		C184.555,187.317,182.263,188.136,180.593,188.136z M180.779,178.345c-0.029,1.584-0.031,4.937,0.125,7.529
		c0.932-0.092,2.357-0.583,3.201-1.723c0.772-1.04,0.912-2.441,0.419-4.168C183.621,178.734,182.055,178.391,180.779,178.345z"/>
	<path style="&st1;" d="M169.974,191.347l3.857-2.776c1.269-0.914,0.956-4.979,0.728-7.948c-0.083-1.079-0.162-2.116-0.184-3.028
		L171.785,175l2.276-0.284c0.645-0.08,1.364-0.198,2.131-0.325c1.883-0.308,4.017-0.658,6.115-0.658
		c4.273,0,7.113,1.572,8.444,4.672c0.892,3.688,0.235,6.992-1.791,9.485c-2.133,2.464-4.971,2.777-7.205,2.777
		c-0.881,0-1.78-0.054-2.675-0.107c-1.605-0.096-3.249-0.158-4.416,0.03L169.974,191.347z M176.594,188.212
		c0.857,0.001,1.739,0.054,2.62,0.107c0.851,0.05,1.704,0.103,2.541,0.103c2.646,0,4.286-0.591,5.486-1.975
		c1.552-1.912,2.052-4.529,1.386-7.34c-0.908-2.076-2.936-3.129-6.319-3.129c-1.914,0-3.951,0.333-5.749,0.627l0.055,0.055v0.464
		c0,0.968,0.09,2.119,0.184,3.325C177.014,183.269,177.236,186.155,176.594,188.212z"/>
	<path style="&st1;" d="M250.787,196.667c1.869,3.448,0.466,7.653-1.831,10.525c0.073,0.036,3.521-0.071,3.521-0.071l-1.762,4.167
		l-7.075,0.073c1.005-4.744,7.003-11.246,1.399-16.131c-1.724-1.581-4.453-2.156-6.464-1.149c-2.875,1.724-4.239,4.885-3.882,7.76
		c0.361,2.873,3.989,9.447,3.989,9.447c-1.365-0.143-8.046,0-8.046,0l-1.294-3.989l3.7-0.25c-2.154-2.586-3.662-7.077-1.651-10.093
		c1.579-3.163,5.424-6.181,8.908-6.072C244.894,190.596,248.202,192.93,250.787,196.667"/>
	<path style="&st1;" d="M240.702,212.63l-2.14-0.226c-1.34-0.139-7.904,0.007-7.904,0.007l-0.835,0.018l-1.995-6.152l3.157-0.214
		c-1.761-3.007-2.423-6.888-0.528-9.729c1.572-3.17,5.661-6.575,9.658-6.575c0.392-0.012,0.667-0.021,0.936-0.021
		c4.245,0,7.731,2.059,10.66,6.292c1.846,3.397,0.978,7.175-0.627,10.01c0.734-0.02,1.357-0.039,1.357-0.039l1.752-0.054
		l-2.732,6.458l-9.211,0.094l0.289-1.37c0.307-1.441,0.993-2.94,1.719-4.529c2.087-4.559,3.216-7.754,0.042-10.522
		c-1.427-1.31-3.723-1.743-5.225-0.992c-2.247,1.352-3.591,4.028-3.269,6.618c0.274,2.177,2.877,7.266,3.857,9.044L240.702,212.63z
		 M240.8,192.457c1.798,0,3.668,0.727,4.997,1.945c4.655,4.058,2.353,9.089,0.502,13.13c-0.43,0.94-0.844,1.846-1.153,2.69
		l4.819-0.049l0.796-1.88c-0.627,0.015-1.259,0.03-1.585,0.03h-0.257l-0.456-0.121l-1.263-0.613l0.877-1.098
		c1.857-2.323,3.425-6.149,1.723-9.289c-2.57-3.704-5.641-5.436-9.432-5.199l-0.035,0.002l-0.219-0.003
		c-3.087,0-6.411,2.832-7.72,5.454c-1.66,2.506-0.515,6.444,1.508,8.873l1.41,1.69l-4.46,0.301l0.592,1.829
		c1.237-0.024,3.605-0.061,5.337-0.045c-1.14-2.222-2.934-5.98-3.203-8.125c-0.436-3.514,1.298-6.992,4.418-8.862
		C238.891,192.665,239.809,192.457,240.8,192.457z"/>
	<path style="&st1;" d="M144.168,204.713c1.963-3.256,2.441-6.752,4.453-9.484c1.581,3.927,2.826,10.059,4.263,14.082l1.508,1.221
		c-1.221,0.289-3.615-0.073-5.627,0.216c0.432-1.869-0.695-5.052-1.125-6.778c-1.102,1.604-1.844,4.07-3.593,6.97
		c-1.916-2.299-2.49-4.575-4.047-6.947c-0.695,1.463-1.365,4.742-1.461,6.707c-1.029,0.167-3.664,0.096-5.221,0.071
		c0.51-0.815,1.782-1.328,1.807-2.6c1.757-4.181,2.557-9.168,4.442-12.942C141.507,197.864,142.299,201.984,144.168,204.713"/>
	<path style="&st1;" d="M144.194,212.872l-1.009-1.212c-1.21-1.453-1.918-2.885-2.603-4.271c-0.101-0.205-0.202-0.407-0.3-0.607
		c-0.318,1.324-0.568,2.85-0.623,3.974l-0.042,0.909l-0.899,0.146c-0.515,0.083-1.342,0.122-2.6,0.122
		c-0.772,0-1.583-0.014-2.274-0.026l-2.537-0.042l1.057-1.687c0.257-0.409,0.603-0.728,0.91-1.009c0.5-0.463,0.721-0.698,0.728-1.02
		l0.088-0.412c0.77-1.834,1.368-3.884,1.945-5.867c0.713-2.451,1.451-4.985,2.528-7.141l0.82-1.641l1.088,1.478
		c1.088,1.476,1.822,3.329,2.53,5.121c0.373,0.937,0.73,1.845,1.127,2.677c0.397-0.874,0.732-1.76,1.061-2.628
		c0.667-1.761,1.355-3.582,2.528-5.171l1.193-1.619l0.752,1.867c0.895,2.222,1.677,5.104,2.434,7.892
		c0.59,2.17,1.149,4.224,1.741,5.936l3.039,2.46l-2.225,0.526c-0.447,0.105-0.989,0.149-1.811,0.15l-1.995-0.025
		c-0.645,0-1.302,0.021-1.921,0.11l-1.622,0.232l0.368-1.597c0.195-0.846-0.055-2.211-0.371-3.48
		c-0.046,0.101-0.092,0.203-0.14,0.306c-0.568,1.24-1.215,2.646-2.149,4.199L144.194,212.872z M135.805,209.685
		c0.647,0.008,1.248-0.004,1.693-0.022c0.224-2.024,0.824-4.753,1.489-6.151l0.855-1.802l1.096,1.669
		c0.68,1.036,1.177,2.042,1.658,3.016c0.419,0.847,0.822,1.664,1.329,2.47c0.46-0.883,0.844-1.713,1.195-2.48
		c0.539-1.177,1.006-2.194,1.594-3.049l1.412-2.059l0.603,2.423c0.081,0.327,0.189,0.707,0.305,1.12
		c0.41,1.457,0.895,3.179,0.945,4.701c0.324-0.012,0.623-0.015,0.866-0.015l0.921,0.011c-0.636-1.814-1.219-3.959-1.835-6.225
		c-0.502-1.847-1.015-3.738-1.557-5.419c-0.395,0.84-0.735,1.734-1.083,2.656c-0.59,1.557-1.199,3.167-2.162,4.763l-0.899,1.494
		l-0.987-1.439c-0.978-1.425-1.664-3.158-2.328-4.836c-0.39-0.989-0.77-1.946-1.193-2.816c-0.566,1.49-1.039,3.113-1.53,4.801
		c-0.577,1.982-1.173,4.03-1.956,5.933C136.187,208.924,136.022,209.337,135.805,209.685z"/>
	<path style="&st1;" d="M92.198,196.068l5.987,13.819l3.018-0.432c0,1.151-0.742,2.492-1.893,3.64l-5.005-0.047
		c0-2.443-2.083-6.155-2.083-6.155l-5.101-0.024c0,0-1.9,3.174-2.132,6.226c-0.007,0.1-5.05-0.109-5.177-0.047
		c-1.256-1.274-1.624-2.522-1.504-3.544l2.875,0.622l5.221-13.843l-1.437-2.346l8.286-0.216L92.198,196.068 M89.444,199.661
		l-1.724,4.286h3.617L89.444,199.661z"/>
	<polygon style="&st1;" points="93.059,205.07 86.058,205.07 89.395,196.771 	"/>
	<path style="&st1;" d="M79.584,214.411l-0.568-0.574c-1.732-1.753-1.947-3.394-1.824-4.462l0.143-1.23l3.14,0.68l4.686-12.424
		l-2.164-3.534l12.013-0.314l-1.583,3.523l5.449,12.579l3.451-0.494v1.295c0,1.41-0.809,3.027-2.221,4.434l-0.333,0.332
		l-6.586-0.062v-1.112c0-1.487-1.004-3.781-1.64-5.035l-3.76-0.018c-0.513,0.988-1.519,3.147-1.673,5.185
		c-0.094,1.064-1.142,1.064-1.647,1.064c-0.581,0-1.552-0.024-2.462-0.047c-0.781-0.02-1.515-0.039-1.901-0.039h-0.002
		L79.584,214.411z M80.296,211.915c0.425,0.004,1.077,0.02,1.763,0.037c0.675,0.018,1.388,0.036,1.94,0.044
		c0.502-2.907,2.085-5.579,2.16-5.704l0.329-0.549l6.391,0.031l0.32,0.57c0.197,0.351,1.726,3.127,2.131,5.591l3.502,0.033
		c0.34-0.383,0.623-0.776,0.831-1.159l-2.166,0.31l-6.527-15.061l0.526-1.169l-4.558,0.118l0.708,1.158l-5.755,15.261l-2.228-0.481
		C79.81,211.267,80.022,211.592,80.296,211.915z"/>
	<path style="&st1;" d="M184.688,195.781c2.169,4.332,3.399,9.044,5.244,13.249c0.543,0.722,1.17,1.014,1.916,1.575
		c-1.867,0.192-4.072,0.024-6.466,0.047c1.054-1.341-0.886-4.167-0.886-4.167l-3.426,0.024c0,0-1.604,3.065-0.909,4.023
		c-1.484,0.024-4.384-0.024-6.132,0.047c0.697-0.523,1.17-0.762,1.684-1.423c2.04-4.17,3.559-9.215,6.003-13.256L184.688,195.781
		 M182.725,200.403l-1.484,3.807l3.232-0.024L182.725,200.403z"/>
	<polygon style="&st1;" points="179.593,205.345 182.636,197.536 186.221,205.296 	"/>
	<path style="&st1;" d="M170.472,211.846l3.381-2.524c0.395-0.278,0.647-0.455,0.908-0.77c0.767-1.585,1.456-3.28,2.184-5.07
		c1.125-2.776,2.291-5.646,3.813-8.163l0.311-0.516l4.3-0.173l0.324,0.649c1.274,2.546,2.23,5.212,3.153,7.789
		c0.675,1.883,1.313,3.665,2.059,5.382c0.263,0.318,0.57,0.527,0.982,0.808c0.204,0.138,0.414,0.283,0.638,0.449l2.287,1.72
		l-2.846,0.295c-1.248,0.13-2.635,0.106-4.133,0.076c-0.638-0.012-1.298-0.025-1.975-0.025l-2.802,0.024l1.447-1.838
		c0.252-0.323-0.107-1.425-0.625-2.345l-2.1,0.014c-0.439,0.986-0.741,2.018-0.658,2.336l1.267,1.746l-2.206-0.055
		c-0.384,0.007-0.864,0.008-1.392,0.008l-1.592-0.001c-1.114,0-2.261,0.005-3.12,0.039L170.472,211.846z M186.82,209.535
		c0.357,0.004,0.71,0.011,1.057,0.018c0.362,0.008,0.719,0.014,1.068,0.019l-0.039-0.09c-0.802-1.827-1.5-3.774-2.173-5.656
		c-0.822-2.292-1.669-4.657-2.732-6.893l-1.625,0.066c-1.289,2.247-2.337,4.828-3.352,7.329c-0.691,1.706-1.405,3.466-2.186,5.09
		c0.118,0,0.239,0,0.36,0h1.697c0.118-1.2,0.721-2.546,1.182-3.427l0.314-0.599l4.696-0.032l0.338,0.491
		C185.71,206.269,186.778,207.93,186.82,209.535z"/>
	<path style="&st1;" d="M328.525,208.593c1.294,3.736-0.575,7.616-4.023,9.054c-3.45,0.862-6.898-0.145-9.627-1.724
		c-2.588-2.156-5.747-5.317-5.174-8.91c1.869,2.443,5.174,6.754,8.478,6.754c-0.719-2.156-0.43-4.742,0.575-6.754
		C321.484,203.851,327.087,204.713,328.525,208.593 M322.346,208.593c-1.294,0.719-2.011,1.867-1.724,3.45
		c0,1.724,1.867,2.154,3.305,2.299c1.726-0.145,2.444-2.013,2.014-3.593C325.509,209.168,324.071,208.163,322.346,208.593z"/>
	<path style="&st1;" d="M323.918,215.469l-0.105-0.01c-3.567-0.362-4.315-2.058-4.315-3.417c-0.331-1.743,0.5-3.43,2.304-4.43
		l0.272-0.109c2.199-0.544,4.348,0.751,4.949,2.949c0.344,1.266,0.136,2.612-0.555,3.6c-0.577,0.823-1.445,1.323-2.447,1.408
		L323.918,215.469z M322.758,209.652c-1.149,0.701-1.142,1.581-1.033,2.19c0.018,0.452,0.018,1.126,2.197,1.37
		c0.296-0.046,0.528-0.193,0.706-0.447c0.305-0.435,0.395-1.112,0.228-1.722C324.58,210.031,323.756,209.465,322.758,209.652z"/>
	<path style="&st1;" d="M321.897,219.085c-3.14,0.001-5.856-1.192-7.584-2.191c-2.868-2.366-6.391-5.853-5.72-10.058l0.414-2.581
		l1.587,2.076c1.394,1.824,3.784,4.949,6.128,5.976c-0.215-1.931,0.143-4.026,1.028-5.796l0.153-0.231
		c1.274-1.473,3.177-2.319,5.223-2.319c2.964,0,5.495,1.665,6.451,4.243c1.454,4.197-0.59,8.79-4.644,10.479
		C323.846,218.967,322.877,219.085,321.897,219.085z M312.477,211.984c0.93,1.174,2.092,2.223,3.116,3.075
		c1.333,0.753,3.664,1.781,6.304,1.78c0.798,0,1.581-0.094,2.333-0.282c2.85-1.203,4.311-4.49,3.234-7.597
		c-0.616-1.664-2.322-2.755-4.337-2.755c-1.344,0-2.587,0.523-3.431,1.438c-0.864,1.81-1.037,4.007-0.452,5.769l0.491,1.477h-1.557
		C316.108,214.889,314.159,213.598,312.477,211.984z"/>
	<path style="&st1;" d="M104.651,259.03c-2.443-0.289-3.448-3.736-4.455-5.892c-1.005-8.478,6.754-14.657,2.875-22.99
		C113.416,238.769,99.477,249.115,104.651,259.03"/>
	<path style="&st1;" d="M106.234,260.123l-1.688-0.2c-2.557-0.304-3.73-3.063-4.672-5.281c-0.167-0.396-0.329-0.777-0.491-1.124
		l-0.079-0.274c-0.465-3.916,0.811-7.301,2.046-10.575c1.508-4.005,2.934-7.788,0.908-12.143l1.388-1.069
		c6.216,5.181,4.315,10.969,2.475,16.567c-1.438,4.382-2.798,8.52-0.673,12.591L106.234,260.123z M101.073,252.894
		c0.149,0.328,0.298,0.681,0.454,1.046c0.386,0.909,0.798,1.876,1.289,2.653c-0.818-3.771,0.406-7.499,1.598-11.128
		c1.421-4.325,2.688-8.185,0.579-11.781c0.368,3.434-0.813,6.565-1.965,9.619C101.886,246.334,100.707,249.467,101.073,252.894z"/>
	<path style="&st1;" d="M171.731,253.545c0.864,2.156-2.443,2.755-1.412,3.905c7.471,1.005,13.65,5.029,19.829,8.908
		c12.213-4.168,25.146-10.346,38.796-6.754c1.581,1.294,1.581,3.593,1.151,5.46c-15.519,12.79-34.918,17.1-53.886,22.13
		c-1.748-0.073-3.448,2.321-3.305,3.735c0.886,4.455,3.64,6.682,8.192,7.184c4.021,1.869,10.776-2.154,10.632,4.887v0.862
		c-17.53,0.719-33.481,1.581-51.154,1.292c-0.846-7.507,4.854-6.005,11.349-6.508c2.334-0.18,4.413-0.191,6.54-3.072
		c2.156-3.664,1.677-4.86,0.622-6.273c-4.885-4.263-11.327-3.114-16.501-5.7c-13.363-5.174-25.863-12.645-37.791-21.698l0.575-0.719
		c12.788-1.724,22.417,9.197,35.205,5.317c6.179-5.029,13.939-6.753,21.123-9.484c-0.575-1.005-2.443-2.443-1.005-3.88
		c1.005-1.581,2.586-1.867,3.878-2.299C167.445,250.552,170.439,250.959,171.731,253.545 M201.069,268.082
		c-2.729,1.724-7.473,3.736-7.184,7.473c6.753-0.289,12.618-2.773,18.25-5.606c3.854-1.94,7.662-3.185,9.052-6.179
		C214.003,263.197,207.105,265.064,201.069,268.082z"/>
	<path style="&st1;" d="M193.055,276.489l-0.066-0.865c-0.285-3.703,3.462-5.879,6.198-7.467c0.5-0.289,0.976-0.566,1.401-0.835
		c6.972-3.491,13.796-4.992,20.671-4.448l1.285,0.103l-0.542,1.171c-1.265,2.723-4.205,4.107-7.319,5.57
		c-0.704,0.331-1.423,0.67-2.147,1.034c-5.536,2.783-11.623,5.401-18.617,5.7L193.055,276.489z M218.585,264.565
		c-5.624,0-11.382,1.454-17.115,4.32c-0.366,0.236-0.862,0.524-1.379,0.826c-2.274,1.319-4.815,2.794-5.256,4.888
		c6.249-0.479,11.807-2.892,16.896-5.452c0.737-0.371,1.471-0.717,2.19-1.054c2.337-1.1,4.42-2.08,5.67-3.514
		C219.256,264.57,218.921,264.565,218.585,264.565z"/>
	<path style="&st1;" d="M147.682,306.11c-2.348,0-4.718-0.018-7.124-0.057l-0.789-0.013l-0.088-0.784
		c-0.274-2.44,0.092-4.199,1.123-5.378c1.616-1.848,4.451-1.913,7.735-1.988c1.057-0.024,2.173-0.049,3.313-0.138l0.351-0.026
		c2.1-0.155,3.76-0.277,5.536-2.684c1.986-3.381,1.386-4.186,0.627-5.203c-2.565-2.211-5.753-2.801-9.128-3.425
		c-2.37-0.439-4.819-0.891-7.056-2.008c-12.644-4.892-25.076-12.029-37.933-21.786l-0.735-0.558l1.379-1.719l0.355-0.048
		c0.956-0.128,1.936-0.194,2.914-0.194c4.973,0,9.511,1.66,13.899,3.265c4.33,1.583,8.422,3.079,12.853,3.079h0.002
		c1.796,0,3.51-0.247,5.229-0.752c4.804-3.857,10.524-5.803,16.056-7.685c1.364-0.464,2.723-0.926,4.067-1.416
		c-0.739-0.967-1.752-2.548-0.213-4.087c0.921-1.49,2.462-1.967,3.701-2.349l0.526-0.168c0.726-0.094,1.261-0.125,1.787-0.125
		c3.201,0,5.374,1.104,6.461,3.281c0.728,1.804-0.463,2.924-1.103,3.526c-0.013,0.011-0.026,0.024-0.039,0.036
		c6.975,1.185,12.864,4.887,18.567,8.473l0.305,0.192c1.673-0.576,3.359-1.187,5.06-1.804c8.051-2.919,16.378-5.939,25.096-5.939
		c3.013,0,5.959,0.374,8.755,1.109l0.34,0.173c1.585,1.297,2.103,3.554,1.458,6.357l-0.068,0.297l-0.237,0.194
		c-14.423,11.885-32.325,16.569-49.64,21.099l-4.718,1.241l-0.136-0.005l-0.002-0.001c-0.482,0-1.028,0.312-1.5,0.834
		c-0.623,0.69-0.914,1.5-0.873,1.913c0.772,3.857,3.127,5.911,7.398,6.383l0.281,0.078c0.912,0.424,2.041,0.479,2.925,0.479
		c0.487,0,0.976-0.019,1.46-0.037c0.493-0.019,0.978-0.036,1.447-0.036c1.414,0,3.004,0.149,4.094,1.261
		c0.862,0.88,1.263,2.207,1.226,4.054v1.705l-8.472,0.356C171.783,305.61,160.097,306.11,147.682,306.11z M141.401,304.269
		c14.741,0.21,28.256-0.366,42.678-0.983l6.751-0.285c0.029-1.34-0.21-2.268-0.71-2.778c-0.498-0.506-1.337-0.722-2.811-0.722
		c-0.447,0-0.91,0.018-1.379,0.035c-0.506,0.02-1.02,0.038-1.528,0.038c-1.028,0-2.348-0.068-3.543-0.584
		c-5.008-0.593-7.898-3.174-8.834-7.884c-0.114-1.083,0.406-2.379,1.313-3.383c0.831-0.92,1.822-1.427,2.796-1.427l4.438-1.175
		c17.03-4.455,34.634-9.061,48.712-20.55c0.239-1.207,0.366-3.075-0.77-4.149c-2.618-0.671-5.269-0.996-8.095-0.996
		c-8.402,0-16.578,2.964-24.484,5.831c-1.848,0.67-3.679,1.334-5.497,1.954l-0.403,0.138l-1.033-0.648
		c-5.799-3.646-11.794-7.415-18.803-8.358l-0.327-0.044l-0.221-0.248c-1.057-1.18,0.068-2.238,0.55-2.689
		c0.726-0.683,0.906-0.96,0.697-1.481c-0.739-1.472-2.328-2.221-4.826-2.221c-0.469,0-0.943,0.027-1.412,0.075l-0.371,0.138
		c-1.105,0.342-2.149,0.664-2.837,1.75c-0.553,0.582-0.533,0.89,0.423,2.108c0.237,0.301,0.454,0.587,0.603,0.845l0.52,0.911
		l-0.98,0.374c-1.723,0.654-3.477,1.251-5.236,1.849c-5.438,1.849-11.059,3.762-15.64,7.491l-0.307,0.163
		c-1.949,0.591-3.883,0.878-5.918,0.878h-0.002c-4.749,0-9.182-1.621-13.469-3.189c-4.786-1.75-9.877-3.536-15.065-3.076
		c12.348,9.254,24.309,16.059,36.528,20.79c2.087,1.038,4.306,1.449,6.657,1.883c3.464,0.64,7.045,1.302,10.11,3.977
		c1.506,1.982,1.796,3.612-0.439,7.405c-2.318,3.149-4.648,3.321-6.902,3.486l-0.344,0.026c-1.173,0.091-2.322,0.117-3.412,0.143
		c-2.859,0.065-5.328,0.121-6.422,1.374C141.576,301.726,141.326,302.78,141.401,304.269z"/>
	<path style="&st1;" d="M198.483,80.276c46.554,9.77,89.662,54.891,99.58,100.872c5.891,21.842,4.597,48.712-0.719,70.41
		c4.023,14.369,6.753,29.169,8.478,44.545c-14.082,6.179-28.453,11.638-43.683,15.231c-35.635,36.642-88.947,49.574-138.665,35.207
		c-20.404-6.756-39.085-17.388-55.61-33.194c-14.225-3.88-28.021-8.478-41.671-13.939c0.432-14.512,3.736-29.313,7.33-43.251
		c-15.233-50.149-1.726-103.89,35.635-140.102c18.105-18.249,39.228-28.594,61.789-35.922c10.346-10.634,21.41-20.261,32.617-29.026
		C175.778,59.296,187.274,70.073,198.483,80.276 M163.565,62.744c-5.317,4.168-10.921,9.054-15.519,13.939
		c10.921-0.862,21.123-1.581,32.619-0.287C176.21,71.222,169.601,66.48,163.565,62.744z M133.436,91.786
		c-44.114,47.418-73.285,101.16-89.234,160.361c5.46,20.404,16.955,38.223,32.904,54.316C132.86,321.982,199.534,319.54,255,304.882
		c16.81-16.381,27.444-36.067,33.336-57.477c-16.381-57.477-45.119-109.925-90.239-155.619
		C178.411,85.751,153.265,86.613,133.436,91.786z M216.012,98.237c34.058,39.226,59.059,82.336,74.865,129.036l0.719-13.22
		C291.741,164.909,261.996,117.348,216.012,98.237z M113.129,98.381l-8.478,4.167c-47.707,26.152-73.14,77.451-65.525,130.186
		C54.072,183.878,79.505,139.19,113.129,98.381z M292.171,266.502c-4.742,11.208-11.209,21.698-18.105,31.901
		c7.616-2.586,15.231-5.174,22.417-8.767C295.189,281.876,294.902,273.399,292.171,266.502z M38.839,272.249l-3.305,20.118
		c6.179,3.593,13.793,6.179,20.404,7.76C49.185,291.361,43.438,281.876,38.839,272.249z M93.443,320.099
		c5.029,3.593,10.202,6.466,15.519,9.054c38.365,20.118,94.549,15.808,128.317-10.921
		C192.304,328.288,138.562,328.865,93.443,320.099z"/>
	<path style="&st1;" d="M163.611,342.62c-20.215,0-39.256-4.382-55.066-12.672c-6.117-2.978-11.09-5.879-15.624-9.119l0.693-1.613
		c20.669,4.016,43.834,6.139,66.991,6.139c26.626,0,53.073-2.767,76.479-8.001l0.752,1.58
		C218.82,333.988,191.766,342.62,163.611,342.62z M97.51,321.771c3.506,2.255,7.358,4.389,11.844,6.573
		c15.578,8.168,34.331,12.48,54.257,12.48c26.192,0,51.398-7.562,69.872-20.855c-22.526,4.703-47.625,7.182-72.878,7.182
		C138.903,327.152,117.193,325.296,97.51,321.771z"/>
	<path style="&st1;" d="M58.202,301.591L55.731,301c-4.528-1.083-13.23-3.543-20.648-7.857l-0.535-0.311l3.87-23.551l1.232,2.582
		c4.714,9.869,10.433,19.194,17.001,27.716L58.202,301.591z M36.522,291.897c5.912,3.338,12.59,5.5,17.153,6.727
		c-5.442-7.314-10.275-15.182-14.406-23.451L36.522,291.897z"/>
	<path style="&st1;" d="M271.827,300.11l1.495-2.211c5.714-8.455,12.927-19.703,18.021-31.746l0.853-2.02l0.809,2.039
		c1.973,4.982,2.699,10.786,3.403,16.401c0.292,2.327,0.583,4.653,0.96,6.915l0.11,0.654l-0.594,0.297
		c-7.262,3.63-15.023,6.264-22.529,8.813L271.827,300.11z M292.084,268.954c-4.624,10.369-10.651,20.032-15.791,27.741
		c6.448-2.201,13.017-4.54,19.196-7.571c-0.331-2.077-0.596-4.202-0.864-6.33C294.036,278.088,293.431,273.242,292.084,268.954z"/>
	<path style="&st1;" d="M39.984,232.997l-1.747-0.135c-7.716-53.439,18.185-104.9,65.983-131.102l8.512-4.185l1.09,1.377
		C79.172,141.005,54.329,186.104,39.984,232.997z M109.826,101.004l-4.778,2.348c-45.89,25.156-71.314,73.968-65.555,125.193
		C53.697,184.017,77.336,141.15,109.826,101.004z"/>
	<path style="&st1;" d="M290.026,227.561c-15.718-46.444-40.85-89.756-74.692-128.735l1.022-1.417
		c45.691,18.988,76.288,65.864,76.139,116.646l-0.721,13.267L290.026,227.561z M219.254,100.629
		c31.661,37.155,55.518,78.17,70.975,122.018l0.469-8.643C290.841,165.328,262.285,120.257,219.254,100.629z"/>
	<path style="&st1;" d="M160.088,317.937c0,0,0,0-0.002,0c-29.933,0-57.932-3.569-83.221-10.61l-0.228-0.064l-0.169-0.169
		C59.421,289.898,48.583,272,43.333,252.38l-0.062-0.234l0.062-0.232c16.257-60.336,46.35-114.417,89.442-160.74l0.178-0.191
		l0.254-0.067c10.627-2.772,22.351-4.238,33.901-4.238c11.377,0,22.184,1.469,31.251,4.249l0.375,0.227
		c43.516,44.068,73.107,95.098,90.465,156.005l0.068,0.242l-0.066,0.242c-6.282,22.821-17.578,42.296-33.575,57.882l-0.169,0.164
		l-0.228,0.06C225.058,313.723,192.159,317.937,160.088,317.937z M77.578,305.661c25.07,6.954,52.828,10.48,82.508,10.48
		c31.836,0,64.494-4.172,94.455-12.067c15.618-15.278,26.675-34.341,32.862-56.665c-17.262-60.429-46.636-111.081-89.788-154.832
		c-8.854-2.685-19.398-4.103-30.507-4.103c-11.309,0-22.781,1.422-33.195,4.114c-42.742,46.004-72.611,99.685-88.783,159.558
		C50.303,271.304,60.918,288.813,77.578,305.661z"/>
	<path style="&st1;" d="M145.799,77.763l1.594-1.694c5.306-5.639,11.421-10.742,15.618-14.031l0.493-0.387l0.535,0.331
		c7.672,4.75,13.495,9.403,17.306,13.828l1.495,1.735l-2.276-0.257c-4.188-0.471-8.435-0.701-12.98-0.701
		c-6.393,0-12.598,0.448-19.468,0.991L145.799,77.763z M163.625,63.841c-3.681,2.908-8.683,7.098-13.289,11.765
		c5.988-0.459,11.533-0.812,17.249-0.812c3.765,0,7.33,0.155,10.827,0.472C174.853,71.596,169.893,67.762,163.625,63.841z"/>
	<path style="&st1;" d="M163.791,353.178c-13.66,0-27.308-1.943-40.567-5.773c-21.603-7.153-39.852-18.027-55.815-33.25
		c-14.385-3.932-27.979-8.484-41.549-13.912l-0.583-0.234l0.019-0.627c0.439-14.715,3.757-29.456,7.294-43.205
		c-15.259-50.558-1.498-104.474,35.945-140.766c15.882-16.008,35.567-27.475,61.923-36.062c9.619-9.871,20.27-19.342,32.555-28.948
		L163.526,50l0.539,0.363c11.186,7.5,21.785,17.172,32.035,26.526l2.809,2.561c45.943,9.762,89.851,54.302,100.031,101.512
		c5.433,20.141,5.185,46.526-0.669,70.583c3.887,13.934,6.65,28.479,8.444,44.461l0.075,0.657l-0.605,0.265
		c-16.51,7.243-30.369,12.084-43.586,15.222C236.768,338.609,201.69,353.178,163.791,353.178z M27.111,298.808
		c13.382,5.328,26.796,9.803,40.991,13.674l0.384,0.217c15.805,15.118,33.883,25.908,55.271,32.99
		c13.061,3.774,26.543,5.693,40.034,5.693c37.499,0,72.197-14.445,97.703-40.673l0.184-0.187l0.254-0.06
		c13.022-3.073,26.677-7.816,42.924-14.914c-1.794-15.712-4.536-30.028-8.376-43.746l-0.064-0.227l0.055-0.229
		c5.839-23.838,6.111-49.99,0.726-69.961c-10.073-46.696-53.509-90.702-98.898-100.228l-0.239-0.05l-3.17-2.891
		c-10.038-9.157-20.408-18.623-31.286-25.997c-12.07,9.471-22.548,18.812-32.014,28.543l-0.366,0.228
		c-26.181,8.504-45.702,19.848-61.428,35.7c-37.029,35.89-50.594,89.227-35.415,139.208l0.073,0.241l-0.064,0.243
		C30.908,269.904,27.622,284.39,27.111,298.808z"/>
	<path style="&st1;" d="M99.479,346.252l-6.575,13.398l0.719,2.659c-1.867-0.717-5.424-2.513-7.437-3.662l3.305-1.043
		c2.156-4.346,5.965-9.879,4.635-12.213C95.563,345.677,98.617,345.533,99.479,346.252"/>
	<path style="&st1;" d="M95.282,364.148l-2.061-0.792c-1.916-0.734-5.473-2.525-7.593-3.735l-2.23-1.273l5.304-1.673
		c0.447-0.878,0.952-1.797,1.46-2.723c1.561-2.849,3.703-6.751,2.986-8.006l-1.219-2.137l2.414,0.48
		c0.463,0.092,1.107,0.132,1.785,0.178c1.949,0.134,3.287,0.27,4.069,0.923l0.677,0.565l-6.777,13.81L95.282,364.148z
		 M89.049,358.92c0.952,0.493,1.96,0.995,2.879,1.426l-0.219-0.811l6.207-12.645c-0.62-0.092-1.419-0.147-1.94-0.183
		c-0.153-0.01-0.307-0.021-0.456-0.032c-0.053,2.275-1.684,5.25-3.39,8.357c-0.574,1.05-1.147,2.091-1.631,3.07l-0.213,0.428
		L89.049,358.92z"/>
	<path style="&st1;" d="M192.197,359.316l1.602,14.839l2.027,1.862c-1.962,0.392-5.929,0.775-8.244,0.876l2.238-2.648
		c-0.501-4.825-0.238-11.536-2.608-12.799C188.581,360.922,191.085,359.169,192.197,359.316"/>
	<path style="&st1;" d="M185.07,378.128l3.585-4.245c-0.09-0.982-0.153-2.028-0.219-3.083c-0.202-3.243-0.476-7.684-1.752-8.362
		l-2.173-1.159l2.3-0.88c0.441-0.17,1.009-0.481,1.607-0.804c1.342-0.725,2.609-1.41,3.64-1.41l0.287,0.019l0.875,0.115
		l1.651,15.295l3.341,3.072l-2.166,0.432c-1.995,0.398-6.034,0.792-8.413,0.897L185.07,378.128z M189.078,361.79
		c1.169,1.95,1.379,5.336,1.598,8.871c0.075,1.196,0.147,2.381,0.259,3.469l0.05,0.476l-0.838,0.99
		c1.068-0.09,2.19-0.205,3.199-0.332l-0.616-0.568l-1.513-14.004c-0.563,0.247-1.248,0.617-1.732,0.879
		C189.348,361.644,189.212,361.717,189.078,361.79z"/>
	<path style="&st1;" d="M240.441,346.541c0.042,0.169,0.642,3.276-0.394,5.279c4.883,1.867,4.13,5.64,3.123,7.796
		c-2.011,2.154-5.029,3.88-7.901,2.443c-2.588-1.437-2.874-4.885-1.869-7.33c1.435-1.867-1.867-1.867-2.586-3.305
		c-1.149-1.437-1.149-4.31,0-5.747C232.825,342.516,239.579,342.086,240.441,346.541 M234.981,345.677
		c-1.292,0-1.292,1.437-1.581,2.299c0.432,1.581,2.012,1.294,3.161,1.867c0.862-0.287,1.149-1.149,1.005-2.011
		C237.28,346.684,236.129,345.677,234.981,345.677z M236.273,354.729c-1.437,1.151-0.86,3.306,0.432,4.168
		c1.437,0.719,3.018-0.432,3.448-1.867C239.866,355.449,237.71,355.017,236.273,354.729z"/>
	<path style="&st1;" d="M237.621,360.24L237.621,360.24c-0.493,0-0.969-0.114-1.419-0.339c-1.142-0.752-1.837-1.997-1.89-3.244
		c-0.048-1.12,0.399-2.117,1.259-2.805l0.41-0.327l0.515,0.104c1.622,0.326,4.339,0.87,4.76,3.201l0.048,0.264l-0.079,0.258
		C240.726,359.025,239.209,360.24,237.621,360.24z M237.33,357.963c0.022,0,0.153,0.032,0.292,0.032c0.506,0,1.057-0.424,1.34-0.993
		c-0.322-0.537-1.381-0.842-2.282-1.041c-0.092,0.174-0.134,0.375-0.123,0.601c0.022,0.537,0.34,1.114,0.772,1.402H237.33z"/>
	<path style="&st1;" d="M236.477,351.055l-0.417-0.207c-0.241-0.121-0.563-0.197-0.906-0.28c-0.941-0.225-2.364-0.565-2.837-2.296
		l-0.09-0.328l0.107-0.322c0.05-0.147,0.086-0.315,0.127-0.488c0.195-0.838,0.601-2.581,2.519-2.581
		c1.638,0,3.252,1.321,3.675,3.007c0.267,1.604-0.439,2.914-1.739,3.347L236.477,351.055z M234.582,347.921
		c0.132,0.203,0.392,0.297,1.094,0.464c0.235,0.057,0.487,0.117,0.743,0.198c0.086-0.184,0.061-0.436,0.039-0.567
		c-0.149-0.582-0.877-1.217-1.478-1.217c-0.16,0.096-0.272,0.583-0.333,0.845C234.626,347.738,234.604,347.831,234.582,347.921z"/>
	<path style="&st1;" d="M237.479,363.708c-0.943,0-1.855-0.217-2.712-0.646c-3.192-1.773-3.611-5.831-2.403-8.761l0.147-0.257
		c0.011-0.015,0.024-0.031,0.033-0.044c-0.175-0.113-0.445-0.249-0.642-0.349c-0.702-0.354-1.568-0.792-2.033-1.614
		c-1.401-1.859-1.377-5.253,0.068-7.062c1.068-1.692,3.429-2.848,5.946-2.848c2.991,0,5.159,1.609,5.661,4.2v-0.001
		c0,0,0.574,2.596-0.07,4.897c1.555,0.792,2.616,1.868,3.157,3.211c0.844,2.083,0.224,4.225-0.443,5.656l-0.197,0.292
		C242.831,361.624,240.443,363.708,237.479,363.708z M234.389,355.277c-0.789,2.05-0.48,4.743,1.425,5.8
		c1.776,0.885,4.295,0.103,6.411-2.096c0.386-0.875,0.859-2.384,0.324-3.704c-0.412-1.02-1.39-1.83-2.905-2.41l-1.173-0.448
		l0.577-1.116c0.754-1.456,0.428-3.925,0.3-4.506c-0.425-2.193-2.565-2.424-3.466-2.424c-1.712,0-3.407,0.784-4.122,1.906
		c-0.899,1.134-0.899,3.408-0.07,4.444l0.127,0.198c0.116,0.23,0.682,0.516,1.096,0.726c0.794,0.401,1.695,0.857,1.921,1.846
		C234.966,354.071,234.817,354.669,234.389,355.277z"/>
	<path style="&st1;" d="M146.465,363.063c1.151,4.167-0.573,7.616-3.88,10.346c-3.018,2.299-6.322,3.88-10.057,4.598v-0.719
		c3.305-1.292,6.466-3.305,8.765-6.466c-2.874-0.862-6.898-1.15-7.473-4.887c-0.143-2.729,1.15-5.604,3.88-6.464
		C142.083,358.441,145.173,359.472,146.465,363.063 M139.39,361.699c-1.294,0.575-1.976,2.227-1.976,3.664
		c0.43,1.294,1.724,2.586,3.448,2.011c1.581,0,2.443-1.724,2.013-3.305C142.874,362.201,140.682,361.84,139.39,361.699z"/>
	<path style="&st1;" d="M140.03,368.636L140.03,368.636c-1.87,0-3.197-1.466-3.684-2.918l-0.057-0.355
		c0-1.749,0.818-3.876,2.644-4.69l0.276-0.123l0.303,0.033c2.899,0.318,4.405,1.439,4.482,3.335
		c0.281,1.193,0.039,2.433-0.656,3.343c-0.572,0.747-1.379,1.178-2.291,1.23C140.708,368.588,140.368,368.636,140.03,368.636z
		 M138.539,365.174c0.259,0.614,0.805,1.217,1.491,1.217l0,0c0.151,0,0.311-0.027,0.476-0.082l0.355-0.058
		c0.285,0,0.511-0.116,0.693-0.354c0.294-0.383,0.386-0.984,0.237-1.533l-0.039-0.295c0-0.28,0-0.917-2.14-1.211
		C138.958,363.31,138.588,364.311,138.539,365.174z"/>
	<path style="&st1;" d="M131.403,379.365v-2.843l0.715-0.28c2.956-1.154,5.372-2.758,7.207-4.779
		c-2.6-0.652-6.034-1.596-6.613-5.358c-0.171-3.11,1.21-6.62,4.65-7.706c1.234-0.293,2.315-0.431,3.295-0.431
		c3.381,0,5.753,1.63,6.865,4.713c1.204,4.345-0.265,8.325-4.223,11.592c-3.322,2.532-6.766,4.106-10.562,4.835L131.403,379.365z
		 M140.657,360.215c-0.807,0-1.715,0.117-2.701,0.35c-2.214,0.702-3.127,3.178-3.015,5.311c0.331,2.106,2.153,2.715,5.115,3.457
		c0.537,0.134,1.066,0.266,1.559,0.414l1.517,0.455l-0.932,1.28c-0.537,0.738-1.129,1.433-1.778,2.086
		c0.498-0.329,0.991-0.68,1.482-1.052c3.234-2.672,4.416-5.761,3.477-9.154C144.615,361.242,143.107,360.215,140.657,360.215z"/>
</g>
</svg>
